<svg width="2000" height="2000" viewBox="0 0 2000 2000" fill="none" xmlns="http://www.w3.org/2000/svg">
<path d="M1860.54 185.15L1859.6 184.6L1858.66 184.05C1858.34 183.87 1858.03 183.68 1857.66 183.51L1856.72 182.96C1856.41 182.78 1856.1 182.59 1855.78 182.42L1854.84 181.87L1853.84 181.32L1852.9 180.78L1851.96 180.23C1851.65 180.05 1851.34 179.86 1851.02 179.69L1850.07 179.14L1849.14 178.6L1848.2 178.05L1847.2 177.5L1846.26 176.95L1845.26 176.41L1844.33 175.87L1843.39 175.32L1842.44 174.77L1841.5 174.22L1840.56 173.68L1839.62 173.13L1838.68 172.59L1837.68 172.04C1837.37 171.86 1837.06 171.67 1836.74 171.5L1835.8 170.95L1834.86 170.4C1834.54 170.22 1834.23 170.03 1833.91 169.86L1832.98 169.31C1832.66 169.13 1832.35 168.94 1831.98 168.77L1831.04 168.22L1830.1 167.67L1829.16 167.13L1828.22 166.58L1827.28 166.04L1826.33 165.49C1826.01 165.31 1825.71 165.12 1825.39 164.95L1824.45 164.4L1823.51 163.85L1822.51 163.3L1821.57 162.76L1820.63 162.21L1819.69 161.67L1818.69 161.12C1818.38 160.94 1818.07 160.75 1817.76 160.58L1816.82 160.03L1815.82 159.48L1814.88 158.94L1813.93 158.39L1813 157.85L1812 157.3L1811.06 156.75L1810.12 156.21L1809.18 155.66C1808.86 155.48 1808.56 155.29 1808.24 155.12L1807.3 154.57L1806.3 154.02C1805.99 153.84 1805.68 153.65 1805.36 153.48L1804.42 152.93C1804.11 152.75 1803.8 152.56 1803.48 152.39C1803.16 152.22 1802.85 152.01 1802.48 151.84L1801.55 151.29L1800.55 150.75L1799.61 150.2L1798.67 149.65L1797.73 149.11L1796.79 148.56L1795.85 148.02L1794.85 147.47C1794.53 147.29 1794.23 147.1 1793.91 146.93L1792.97 146.38L1792.03 145.83C1791.71 145.65 1791.4 145.46 1791.03 145.29L1790.09 144.74C1789.78 144.56 1789.47 144.37 1789.15 144.2L1788.21 143.65L1787.21 143.1C1786.9 142.92 1786.59 142.73 1786.28 142.56L1785.34 142.01C1785.02 141.83 1784.71 141.64 1784.34 141.47L1783.4 140.92L1782.4 140.37C1782.09 140.19 1781.78 140 1781.47 139.83L1780.53 139.28C1780.21 139.1 1779.9 138.91 1779.53 138.74C1779.16 138.57 1778.91 138.36 1778.59 138.19L1777.65 137.64L1776.71 137.1L1775.77 136.55L1774.77 136L1773.83 135.46L1772.89 134.91C1772.58 134.73 1772.27 134.54 1771.95 134.37L1770.95 133.82C1770.64 133.64 1770.33 133.45 1770.02 133.28L1769.02 132.73L1768.08 132.18L1767.14 131.64L1766.2 131.09L1765.26 130.55C1735.4 113.46 1699.38 114.09 1660.61 136.35L787.9 638.15V677.24C785.448 675.4 782.794 673.847 779.99 672.61C779.66 672.46 779.38 672.2 779.05 672.06C778.72 671.92 778.44 671.65 778.1 671.51C777.76 671.37 777.5 671.11 777.16 670.97C776.82 670.83 776.56 670.56 776.22 670.42C775.88 670.28 775.62 670.02 775.28 669.88C774.94 669.74 774.68 669.47 774.34 669.33C774 669.19 773.73 668.92 773.4 668.78C773.07 668.64 772.79 668.38 772.45 668.24C772.11 668.1 771.85 667.83 771.51 667.69C771.17 667.55 770.91 667.29 770.57 667.15C770.23 667.01 769.97 666.74 769.63 666.6C769.29 666.46 769.02 666.19 768.63 666.05C768.24 665.91 768.03 665.65 767.7 665.51C767.37 665.37 767.09 665.1 766.7 664.96C766.31 664.82 766.1 664.56 765.76 664.42C765.42 664.28 765.16 664.01 764.82 663.87C764.48 663.73 764.21 663.46 763.88 663.32C763.55 663.18 763.27 662.92 762.94 662.78C762.61 662.64 762.33 662.37 761.99 662.23C761.65 662.09 761.39 661.83 761.05 661.69C760.71 661.55 760.45 661.28 760.11 661.14C759.77 661 759.51 660.73 759.17 660.59C758.83 660.45 758.56 660.19 758.23 660.05C757.9 659.91 757.62 659.64 757.23 659.5C756.84 659.36 756.63 659.09 756.29 658.96C755.95 658.83 755.69 658.55 755.35 658.41C755.01 658.27 754.75 658 754.41 657.86C754.07 657.72 753.8 657.46 753.47 657.32C753.14 657.18 752.86 656.91 752.53 656.77C752.2 656.63 751.92 656.37 751.58 656.23C751.24 656.09 750.98 655.82 750.64 655.68C750.3 655.54 750.03 655.27 749.7 655.13C749.37 654.99 749.09 654.73 748.76 654.59C748.43 654.45 748.15 654.18 747.82 654.04C747.49 653.9 747.21 653.64 746.82 653.5C746.43 653.36 746.22 653.09 745.88 652.95C745.54 652.81 745.28 652.54 744.94 652.4C744.6 652.26 744.34 652 744 651.86C743.66 651.72 743.4 651.45 743.06 651.31C742.72 651.17 742.45 650.9 742.12 650.77C741.79 650.64 741.51 650.36 741.12 650.22C740.73 650.08 740.52 649.81 740.18 649.67C739.84 649.53 739.58 649.27 739.24 649.13C738.9 648.99 738.64 648.72 738.3 648.58C737.96 648.44 737.69 648.18 737.35 648.03C737.01 647.88 736.75 647.63 736.42 647.49C736.09 647.35 735.81 647.08 735.47 646.94C735.13 646.8 734.87 646.54 734.53 646.4C734.19 646.26 733.93 645.99 733.59 645.85C733.25 645.71 732.98 645.44 732.65 645.31C732.32 645.18 732.04 644.9 731.71 644.76C731.38 644.62 731.1 644.35 730.71 644.21C730.32 644.07 730.11 643.81 729.77 643.67C729.43 643.53 729.17 643.26 728.83 643.12C728.49 642.98 728.23 642.72 727.89 642.58C727.55 642.44 727.28 642.17 726.95 642.03C726.62 641.89 726.34 641.62 725.95 641.48C725.56 641.34 725.35 641.08 725.01 640.94C724.67 640.8 724.41 640.53 724.07 640.39C723.73 640.25 723.47 639.98 723.13 639.84C722.79 639.7 722.52 639.44 722.19 639.3C721.86 639.16 721.58 638.89 721.25 638.75C720.92 638.61 720.64 638.35 720.25 638.21C719.86 638.07 719.65 637.8 719.31 637.66C718.97 637.52 718.71 637.26 718.37 637.11C718.03 636.96 717.77 636.71 717.43 636.57C717.09 636.43 716.83 636.16 716.49 636.02C716.15 635.88 715.88 635.62 715.55 635.48C715.22 635.34 714.94 635.07 714.55 634.93C714.16 634.79 713.95 634.52 713.61 634.39C713.27 634.26 713.01 633.98 712.67 633.84C712.33 633.7 712.07 633.43 711.73 633.29C711.39 633.15 711.12 632.89 710.79 632.75C710.46 632.61 710.18 632.34 709.79 632.2C709.4 632.06 709.19 631.79 708.85 631.66C708.51 631.53 708.25 631.25 707.91 631.11C707.57 630.97 707.31 630.7 706.97 630.56C706.63 630.42 706.36 630.16 705.97 630.02C705.58 629.88 705.37 629.61 705.04 629.47C704.71 629.33 704.43 629.06 704.04 628.92C703.65 628.78 703.44 628.52 703.1 628.38C702.76 628.24 702.5 627.97 702.16 627.83C701.82 627.69 701.55 627.43 701.22 627.29C700.89 627.15 700.61 626.88 700.28 626.74C699.95 626.6 699.67 626.33 699.28 626.19C698.89 626.05 698.68 625.79 698.34 625.65C698 625.51 697.74 625.24 697.4 625.1C697.06 624.96 696.8 624.7 696.46 624.56C696.12 624.42 695.85 624.15 695.52 624.01C695.19 623.87 694.91 623.61 694.57 623.46C694.23 623.31 693.97 623.06 693.63 622.92C693.29 622.78 693.03 622.51 692.69 622.37C692.35 622.23 692.09 621.97 691.75 621.83C691.41 621.69 691.14 621.42 690.81 621.28C690.48 621.14 690.2 620.87 689.87 620.74C689.54 620.61 689.26 620.33 688.92 620.19C688.58 620.05 688.32 619.78 687.98 619.64C687.64 619.5 687.38 619.24 687.04 619.1C686.7 618.96 686.44 618.69 686.1 618.55C685.76 618.41 685.5 618.14 685.16 618C681.612 616.35 677.858 615.183 674 614.53C658.473 612.363 638.777 618.13 614.91 631.83C594.59 643.497 577.513 656.873 563.68 671.96C550.397 686.255 539.133 702.301 530.2 719.65C528.53 722.94 527.38 726.23 525.89 729.52V728.8L524.95 729.34V728.26L524.01 728.8V727.71L523.07 728.25V727.17L522.12 727.71V726.62L521.18 727.16V726.07L520.24 726.61V725.53L519.3 726.07V725L518.36 725.54V724.46L517.36 725V723.91L516.42 724.45V723.36L515.48 723.9V722.8L514.54 723.34V722.25L513.6 722.79V721.7L512.66 722.25V721.16L511.66 721.7V720.61L510.72 721.15V720.07L509.78 720.61V719.52L508.84 720.06V719L507.9 719.55V718.46L507 719V717.91L506.06 718.45V717.37L505.12 717.91V716.82L504.18 717.36V716.28L503.24 716.82V715.7L502.3 716.24V715.15L501.35 715.69V714.61L500.41 715.15V714.06L499.47 714.6V713.52L498.53 714.06V713L497.59 713.54V712.45L496.64 712.99V711.91L495.7 712.45V711.36L494.76 711.9V710.81L493.82 711.36V710.27L492.88 710.81V709.72L491.94 710.26V709.18L490.94 709.72V708.6L428.1 744.74V816.48L427.35 816.9V815.82L426.41 816.36V815.27L425.47 815.81V814.72L424.53 815.26V814.18L423.59 814.72V813.63L422.64 814.17V813.09L421.7 813.63V812.54L420.76 813.08V812L419.82 812.54V811.46L418.88 812V810.9L417.94 811.44V810.36L416.99 810.9V809.81L416.05 810.35V809.26L415.11 809.8V808.72L414.17 809.26V808.17L413.23 808.71V807.63L412.23 808.17V807.08L411.29 807.62V806.53L410.35 807.07V806L409.41 806.54V805.45L408.47 805.99V804.9L407.53 805.44V804.35L406.58 804.89V803.8L405.64 804.34V803.26L404.7 803.8V802.71L403.76 803.25V802.17L402.82 802.71V801.62L401.88 802.16V801.07L400.93 801.61V800.53L399.99 801.07V800L399.05 800.54V799.46L398.11 800V798.91L397.17 799.45V798.36L396.17 798.9V797.8L395.23 798.34V797.25L394.29 797.79V796.71L393.35 797.25V796.16L392.41 796.7V795.61L391.46 796.15V795.07L390.52 795.61V794.52L389.58 795.06V794L388.64 794.54V793.45L387.7 793.99V792.9L386.76 793.44V792.36L385.81 792.9V791.81L384.87 792.35V791.27L383.93 791.81V790.7L382.99 791.24V790.15L382.05 790.69V789.61L381.1 790.15V789.06L380.16 789.6V788.51L379.22 789.06V788L378.28 788.54V787.45L377.34 787.99V786.91L376.4 787.45V786.36L375.45 786.9V785.82L374.51 786.36V785.27L373.57 785.81V784.72L372.63 785.26V784.18L371.69 784.72V783.6L370.75 784.14V783.06L369.75 783.6V782.51L368.81 783.05V782L367.87 782.54V781.46L366.93 782V780.91L365.99 781.45V780.36L144.84 907.41V924.8L143.92 925.33V924.24L142.98 924.78V923.69L142.04 924.23V923.15L141.1 923.69V922.6L140.15 923.14V922.05L139.21 922.6V921.51L138.27 922.05V921L137.33 921.54V920.46L136.39 921V919.91L135.44 920.45V919.37L134.5 919.91V918.82L133.56 919.36V918.27L132.62 918.81V917.73L131.68 918.27V917.18L130.74 917.72V916.6L129.74 917.14V916.05L66.8599 952.19V1329.69L67.7999 1329.15V1330.23L68.7399 1329.69V1330.78L69.6799 1330.24V1331.32L70.6199 1330.78V1331.87L71.5599 1331.33V1332.42L72.5599 1331.88V1333L73.4999 1332.46V1333.55L74.4399 1333.01V1334.1L75.3799 1333.55V1334.64L76.3199 1334.1V1335.19L77.2599 1334.65V1335.73L78.2599 1335.19V1336.28L79.1999 1335.74V1336.83L80.1399 1336.28V1337.37L81.0799 1336.83V1337.92L82.0199 1337.38V1338.46L83.0199 1337.92V1339L83.9599 1338.46V1339.55L84.8999 1339V1340.09L85.8399 1339.55V1340.64L86.7799 1340.1V1341.18L87.7199 1340.64V1341.73L88.7199 1341.19V1342.27L89.6599 1341.73V1342.82L90.5999 1342.28V1343.37L91.5399 1342.83V1343.91L92.4799 1343.37V1344.46L93.4799 1343.92V1345L94.4199 1344.45V1345.54L95.3599 1345V1346.09L96.2999 1345.55V1346.63L97.2399 1346.09V1347.18L98.2399 1346.64V1347.73L99.1799 1347.18V1348.27L100.12 1347.73V1348.82L101.06 1348.28V1349.36L102 1348.82V1349.91L102.94 1349.37V1350.46L103.94 1349.91V1351L104.88 1350.46V1351.55L105.82 1351.01V1352.09L106.76 1351.55V1352.64L107.7 1352.1V1353.19L108.64 1352.65V1353.73L109.59 1353.19V1354.28L110.53 1353.74V1354.1L57.1599 1384.75V1826.27L58.0999 1825.73V1826.81L59.0399 1826.27V1827.36L59.9799 1826.82V1827.91L60.9199 1827.36V1828.45L61.9199 1827.91V1829L62.8599 1828.46V1829.54L63.7999 1829V1830.09L64.7399 1829.55V1830.64L65.6799 1830.1V1831.18L66.6199 1830.64V1831.73L67.6199 1831.19V1832.27L68.5599 1831.73V1832.82L69.4999 1832.28V1833.37L70.4399 1832.83V1833.91L71.3799 1833.37V1834.46L72.3299 1833.92V1835L73.2699 1834.46V1835.55L74.2099 1835.01V1836.1L75.1499 1835.56V1836.64L76.0899 1836.1V1837.19L77.0299 1836.65V1837.73L78.0299 1837.19V1838.28L78.9699 1837.74V1838.83L79.9099 1838.29V1839.37L80.8499 1838.83V1839.92L81.7899 1839.38V1840.46L82.7299 1839.92V1841L83.7299 1840.46V1841.55L84.6699 1841.01V1842.09L85.6099 1841.55V1842.64L86.5499 1842.1V1843.18L87.5499 1842.64V1843.73L88.4899 1843.19V1844.28L89.4299 1843.74V1844.82L90.3699 1844.28V1845.37L91.3099 1844.83V1845.91L92.2499 1845.37V1846.46L93.1999 1845.92V1847L94.1399 1846.46V1847.54L95.0799 1847V1848.09L96.0199 1847.55V1848.63L96.9599 1848.09V1849.18L97.8999 1848.64V1849.73L98.8999 1849.19V1850.27L99.8399 1849.73V1850.82L100.78 1850.28V1851.36L101.72 1850.82V1851.91L102.66 1851.37V1852.46L103.61 1851.92V1853L104.55 1852.46V1853.55L105.49 1853.01V1854.1L106.43 1853.55V1854.64L107.37 1854.1V1855.19L108.31 1854.65V1855.73L109.31 1855.19V1856.28L110.25 1855.74V1856.82L111.19 1856.28V1857.37L112.13 1856.83V1857.92L113.07 1857.38V1858.46L114.01 1857.92V1859L115.01 1858.46V1859.54L115.95 1859V1860.09L116.89 1859.55V1860.64L117.83 1860.1V1861.18L118.77 1860.64V1861.73L119.77 1861.19V1862.27L120.71 1861.73V1862.82L121.65 1862.28V1863.37L122.59 1862.83V1863.91L123.53 1863.37V1864.46L124.53 1863.92V1865L125.47 1864.45V1865.54L126.41 1865V1866.09L127.35 1865.55V1866.63L128.29 1866.09V1867.18L129.23 1866.64V1867.73L130.23 1867.18V1868.27L131.17 1867.73V1868.82L132.11 1868.28V1869.36L133.05 1868.82V1869.91L133.99 1869.37V1870.45L134.94 1869.91V1871L135.88 1870.46V1871.55L136.82 1871.01V1872.09L137.76 1871.55V1872.64L138.7 1872.1V1873.19L139.64 1872.64V1873.73L140.59 1873.19V1874.28L141.53 1873.74V1874.82L142.47 1874.28V1875.37L143.41 1874.83V1875.92L144.35 1875.37V1876.46L145.29 1875.92V1877L146.29 1876.46V1877.54L147.23 1877V1878.09L148.17 1877.55V1878.64L149.11 1878.09V1879.18L150.05 1878.64V1879.73L151.05 1879.19V1880.27L151.99 1879.73V1880.82L152.93 1880.28V1881.37L1559.62 1073.55V836.88L1559.79 836.79V837.88L1560.73 837.33V838.42L1561.67 837.88V839L1562.62 838.46V839.54L1563.56 839V840.09L1564.5 839.55V840.63L1565.44 840.09V841.18L1566.38 840.64V841.73L1567.33 841.19V842.27L1568.27 841.73V842.82L1569.21 842.28V843.36L1570.15 842.82V843.91L1571.09 843.37V844.46L1572.09 843.92V845L1573.03 844.46V845.55L1573.97 845.01V846.1L1574.91 845.55V846.64L1575.85 846.1V847.19L1576.79 846.65V847.73L1577.79 847.19V848.28L1578.73 847.74V848.83L1579.67 848.28V849.37L1580.61 848.83V849.92L1581.55 849.38V850.46L1582.49 849.92V851L1583.44 850.46V851.55L1584.38 851.01V852.09L1585.32 851.55V852.64L1586.26 852.1V853.18L1587.2 852.64V853.73L1588.2 853.19V854.28L1589.14 853.73V854.82L1590.08 854.28V855.37L1591.02 854.83V855.91L1591.96 855.37V856.46L1592.9 855.92V857L1593.9 856.45V857.54L1594.84 857V858.09L1595.78 857.55V858.63L1596.72 858.09V859.18L1597.66 858.64V859.73L1598.66 859.18V860.27L1599.6 859.73V860.82L1600.54 860.28V861.36L1601.48 860.82V861.91L1602.42 861.37V862.46L1603.37 861.92V863L1604.31 862.46V863.55L1605.25 863.01V864.09L1606.19 863.55V864.64L1607.13 864.1V865.19L1608.07 864.64V865.73L1609.07 865.19V866.28L1610.01 865.74V866.82L1610.95 866.28V867.37L1611.89 866.83V867.92L1612.83 867.37V868.46L1613.77 867.92V869L1614.77 868.46V869.54L1615.71 869V870.09L1616.65 869.55V870.64L1617.59 870.09V871.18L1618.53 870.64V871.73L1619.53 871.19V872.27L1620.47 871.73V872.82L1621.41 872.28V873.37L1622.35 872.83V873.91L1623.29 873.37V874.46L1624.23 873.92V875L1625.23 874.46V875.55L1626.17 875.01V876.1L1627.11 875.56V876.64L1628.05 876.1V877.19L1628.99 876.65V877.73L1629.99 877.19V878.28L1630.93 877.74V878.83L1631.87 878.28V879.37L1632.81 878.83V879.92L1633.75 879.38V880.46L1634.69 879.92V881L1635.69 880.46V881.55L1636.63 881V882.09L1637.57 881.55V882.64L1638.51 882.1V883.18L1639.45 882.64V883.73L1640.4 883.19V884.28L1641.34 883.74V884.82L1642.28 884.28V885.37L1758.39 818.69C1861.14 759.69 1944.74 571 1944.74 398.09C1943.19 289.71 1910.35 212.9 1860.54 185.15ZM224.92 1238.92L225.14 1238.79V1239.88L226.08 1239.34V1240.42L227.02 1239.88V1241L227.96 1240.46V1241.55L228.9 1241V1242.09L229.85 1241.55V1242.64L230.79 1242.1V1243.18L231.73 1242.64V1243.73L232.67 1243.19V1244.28L233.61 1243.73V1244.82L234.55 1244.28V1245.37L235.5 1244.83V1245.91L236.44 1245.37V1246.46L237.38 1245.92V1247L238.32 1246.46V1247.54L239.26 1247V1248.09L240.2 1247.55V1248.63L241.2 1248.09V1249.18L242.14 1248.64V1249.73L243.08 1249.18V1250.27L244.02 1249.73V1250.82L244.96 1250.28V1251.36L245.96 1250.82V1251.91L246.9 1251.37V1252.46L247.84 1251.91V1253L248.78 1252.46V1253.55L249.72 1253.01V1254.09L250.66 1253.55V1254.64L251.61 1254.1V1255.19L252.55 1254.65V1255.73L253.49 1255.19V1256.28L254.43 1255.74V1256.82L255.37 1256.28V1257.37L256.37 1256.83V1257.92L257.31 1257.38V1258.46L258.25 1257.92V1259L259.19 1258.46V1259.54L260.13 1259V1260.09L261.07 1259.55V1260.64L262.02 1260.1V1261.18L262.96 1260.64V1261.73L263.9 1261.19V1262.27L264.84 1261.73V1262.82L265.78 1262.28V1263.37L266.73 1262.82V1263.91L267.67 1263.37V1263.73L225.07 1288.2L224.92 1238.92ZM586.16 1058.78C586.32 1058.87 586.52 1058.9 586.69 1059C586.86 1059.1 587.32 1059.36 587.63 1059.54L588.57 1060.09C588.88 1060.28 589.2 1060.45 589.51 1060.63C589.82 1060.81 590.14 1061 590.51 1061.18L591.45 1061.73C591.76 1061.92 592.08 1062.09 592.39 1062.27L593.33 1062.82C593.64 1063.01 593.96 1063.18 594.27 1063.36C594.58 1063.54 594.9 1063.73 595.22 1063.91L596.16 1064.46L597.1 1065L598.04 1065.55C598.35 1065.74 598.67 1065.91 598.98 1066.09C599.29 1066.27 599.61 1066.46 599.98 1066.64C600.35 1066.82 600.6 1067.01 600.92 1067.19L601.86 1067.73L602.8 1068.28C603.11 1068.47 603.43 1068.65 603.75 1068.83C604.07 1069.01 604.37 1069.19 604.68 1069.37C604.99 1069.55 605.1 1069.66 605.32 1069.79L586.26 1080.79L586.16 1058.78ZM471.42 1146.27V1146.63L382.26 1197.83V976.08L428.1 949.76V1121.11L429.04 1121.7L471.42 1146.27ZM1551.09 628.77V627.68L1550.15 628.22V627.14L1549.21 627.68V626.59L1548.21 627.13V626.05L1547.27 626.59V625.5L1546.33 626.04V625L1545.39 625.55V624.46L1544.45 625V623.91L1543.51 624.45V623.37L1542.51 623.91V622.82L1541.57 623.36V622.27L1540.63 622.81V621.73L1539.69 622.27V621.18L1538.75 621.72V620.64L1537.8 621.18V620L1536.86 620.54V619.45L1535.92 619.99V619L1534.98 619.54V618.4L1534.04 618.94V617.86L1533.1 618.4V617.31L1532.1 617.85V616.76L1531.16 617.3V616.22L1530.22 616.76V615.67L1529.28 616.21V615.13L1528.34 615.67V614.58L1527.34 615.12V614L1526.4 614.55V613.46L1525.46 614V612.91L1524.52 613.45V612.4L1523.58 612.94V611.85L1522.58 612.39V611.3L1521.64 611.84V610.76L1520.7 611.3V610.21L1519.76 610.75V609.67L1518.82 610.21V609.12L1517.88 609.66V608.57L1516.88 609.11V608L1515.94 608.54V607.45L1515 607.99V606.91L1514.06 607.45V606.36L1513.12 606.9V605.81L1512.18 606.35V605.3L1511.18 605.84V604.75L1510.24 605.29V604.21L1509.3 604.75V603.66L1508.36 604.2V603.11L1507.42 603.65V602.57L1506.42 603.11V602L1505.48 602.54V601.46L1504.54 602V600.91L1503.6 601.45V600.36L1502.66 600.9V599.82L1501.72 600.36V599.27L1500.77 599.81V598.73L1499.83 599.27V598.2L1498.89 598.74V597.65L1497.95 598.19V597.11L1497.01 597.65V596.56L1496.01 597.1V596L1495.07 596.54V595.45L1494.13 595.99V594.9L1493.19 595.44V594.36L1492.25 594.9V593.81L1491.25 594.35V593.27L1490.31 593.81V592.72L1489.37 593.26V592.17L1488.43 592.71V591.63L1487.49 592.17V591.1L1486.55 591.64V590.56L1485.55 591.1V590L1484.61 590.54V589.45L1483.67 589.99V588.91L1482.73 589.45V588.36L1481.79 588.9V587.82L1480.85 588.36V587.27L1479.85 587.81V586.72L1478.91 587.26V586.18L1477.97 586.72V585.63L1477.03 586.17V585.08L1476.09 585.63V584.54L1475.09 585.08V584L1474.15 584.54V583.46L1473.21 584V582.91L1472.27 583.45V582.37L1471.33 582.91V581.82L1470.39 582.36V581.27L1469.39 581.81V580.73L1468.45 581.27V580.18L1467.51 580.72V579.64L1466.57 580.18V579.09L1465.63 579.63V578.54L1464.68 579.08V578L1463.74 578.54V577.45L1462.8 577.99V576.9L810.88 951.68C816.98 930.68 820.17 910.19 820.17 890.22C820.17 874.093 818.17 859.667 814.17 846.94C810.17 834.213 803.113 825.193 793 819.88C792.92 819.88 792.81 819.88 792.73 819.78C792.49 819.65 792.3 819.46 792.05 819.33C791.97 819.33 791.87 819.28 791.79 819.24C791.55 819.1 791.36 818.91 791.11 818.79C791.022 818.751 790.932 818.717 790.84 818.69C790.61 818.56 790.41 818.37 790.17 818.24C790.09 818.24 789.98 818.24 789.9 818.14C789.66 818.01 789.47 817.82 789.23 817.69C789.15 817.69 789.04 817.64 788.96 817.6C788.72 817.47 788.53 817.28 788.29 817.15C788.21 817.15 788.1 817.09 788.02 817.05C787.78 816.92 787.59 816.73 787.35 816.6C787.27 816.6 787.16 816.55 787.08 816.51C786.84 816.37 786.65 816.18 786.4 816.05C786.32 816.05 786.22 816.05 786.14 815.96C785.9 815.83 785.7 815.64 785.46 815.51C785.38 815.51 785.27 815.51 785.19 815.41C784.95 815.28 784.76 815.09 784.52 814.96C784.44 814.96 784.33 814.91 784.25 814.87C784.01 814.74 783.82 814.54 783.58 814.42C783.5 814.42 783.39 814.36 783.31 814.32C783.07 814.19 782.88 814 782.64 813.87C782.56 813.87 782.45 813.87 782.37 813.78C782.13 813.64 781.94 813.45 781.7 813.32C781.46 813.19 781.51 813.27 781.42 813.23C781.33 813.19 780.99 812.91 780.75 812.78C780.67 812.78 780.57 812.78 780.48 812.68C780.39 812.58 780.05 812.36 779.81 812.23C779.73 812.23 779.62 812.18 779.54 812.14C779.3 812.01 779.11 811.81 778.87 811.69C778.79 811.64 778.68 811.63 778.6 811.59C778.36 811.46 778.17 811.27 777.93 811.14C777.85 811.14 777.74 811.14 777.66 811.04C777.42 810.91 777.23 810.72 776.99 810.6C776.91 810.55 776.8 810.54 776.72 810.5C776.48 810.37 776.29 810.18 776.04 810.05C775.952 810.021 775.865 809.988 775.78 809.95C775.54 809.82 775.35 809.63 775.1 809.5C775.02 809.5 774.92 809.5 774.83 809.41C774.74 809.32 774.4 809.08 774.16 808.96C774.08 808.91 773.97 808.9 773.89 808.86C773.65 808.73 773.46 808.54 773.22 808.41C773.14 808.41 773.03 808.41 772.95 808.32C772.71 808.18 772.52 807.99 772.28 807.87C772.2 807.87 772.09 807.81 772.01 807.77C771.77 807.64 771.58 807.45 771.34 807.32C771.248 807.293 771.158 807.259 771.07 807.22C770.83 807.09 770.64 806.9 770.39 806.77C770.31 806.77 770.2 806.77 770.12 806.68C769.88 806.54 769.69 806.36 769.45 806.23C769.362 806.191 769.272 806.157 769.18 806.13C768.94 806 768.75 805.81 768.51 805.68C768.43 805.68 768.32 805.68 768.24 805.59C768 805.45 767.81 805.26 767.57 805.13C767.49 805.13 767.38 805.13 767.3 805.04C767.06 804.91 766.87 804.72 766.63 804.59C766.54 804.54 766.44 804.53 766.35 804.49C766.26 804.45 765.93 804.17 765.68 804.04C765.6 804.04 765.5 804.04 765.42 803.95C765.18 803.82 764.99 803.62 764.74 803.5C764.652 803.461 764.562 803.427 764.47 803.4C764.24 803.27 764.04 803.08 763.8 802.95C763.72 802.95 763.61 802.9 763.53 802.86C763.29 802.72 763.1 802.53 762.86 802.4C762.78 802.4 762.67 802.4 762.59 802.31C762.35 802.18 762.16 801.99 761.92 801.86C761.84 801.86 761.73 801.81 761.65 801.76C761.41 801.63 761.22 801.44 760.97 801.31C760.89 801.31 760.79 801.31 760.71 801.22C760.47 801.09 760.28 800.89 760.03 800.77C759.942 800.731 759.852 800.697 759.76 800.67C759.53 800.54 759.33 800.35 759.09 800.22C759.01 800.22 758.9 800.17 758.82 800.12C758.58 799.99 758.39 799.8 758.15 799.68H758.09L787.86 782.59V797.64L788.8 797.1V798.19L789.74 797.64V798.73L790.68 798.19V799.28L791.63 798.74V799.82L792.57 799.28V800.37L793.51 799.83V800.92L794.45 800.37V801.46L795.39 800.92V802L796.39 801.46V802.54L797.33 802V803.09L798.27 802.55V803.64L799.21 803.1V804.18L800.15 803.64V804.73L801.15 804.19V805.27L802.09 804.73V805.82L803.03 805.28V806.37L803.97 805.82V806.91L804.91 806.37V807.46L805.85 806.92V808L806.85 807.46V808.55L807.79 808.01V809.1L808.73 808.55V809.64L809.67 809.1V810.19L810.61 809.65V810.73L811.61 810.19V811.28L812.55 810.74V811.83L813.49 811.29V812.37L814.43 811.83V812.92L815.37 812.38V813.46L816.31 812.92V814L817.31 813.46V814.55L818 814V815.08L818.94 814.54V815.63L819.88 815.09V816.17L820.82 815.63V816.72L821.76 816.18V817.27L822.76 816.73V817.81L823.7 817.27V818.36L824.64 817.82V818.9L825.58 818.36V819.45L826.52 818.91V820L827.52 819.45V820.54L828.46 820V821.09L829.4 820.55V821.63L830.34 821.09V822.18L831.28 821.64V822.73L832.23 822.19V823.27L833.17 822.73V823.82L834.11 823.28V824.36L835.05 823.82V824.91L835.99 824.37V825.46L836.93 824.92V826L837.93 825.46V826.55L838.87 826.01V827.09L839.81 826.55V827.64L840.75 827.1V828.19L841.69 827.65V828.73L842.64 828.19V829.28L843.58 828.74V829.82L844.52 829.28V830.37L845.46 829.83V830.92L846.4 830.38V831.46L847.34 830.92V832L848.29 831.46V832.54L849.23 832V833.09L850.17 832.55V833.64L851.11 833.1V834.18L852.05 833.64V834.73L852.99 834.19V835.27L853.99 834.73V835.82L854.93 835.28V836.37L855.87 835.83V836.91L856.81 836.37V837.46L857.75 836.92V838L858.7 837.46V838.55L859.64 838.01V839.1L860.58 838.56V839.64L861.52 839.1V840.19L862.46 839.65V840.73L863.46 840.19V841.28L864.4 840.74V841.83L865.34 841.29V842.37L866.28 841.83V842.92L867.22 842.38V843.46L868.16 842.92V844L869.11 843.46V844.55L870.05 844.01V845.09L870.99 844.55V845.64L871.93 845.1V846.19L872.87 845.64V846.73L873.87 846.19V847.28L874.81 846.74V847.82L875.75 847.28V848.37L876.69 847.83V848.92L877.63 848.37V849.46L878.57 848.92V850L879.57 849.46V850.54L880.51 850V851.09L881.45 850.55V851.63L882.39 851.09V852.18L883.33 851.64V852.73L1749.72 355.19C1752.4 369.075 1753.71 383.189 1753.63 397.33C1753.63 482.33 1712.54 575.06 1662.02 604.07L1558.93 663.27V632.05L1557.99 632.59V631.51L1557.05 632.05V631L1556.11 631.54V630.45L1555.17 630.99V629.91L1554.22 630.45V629.36L1553.28 629.9V628.82L1552.34 629.36V628.27L1551.09 628.77Z" fill="#99F6E4" stroke="#231F20" stroke-width="2" stroke-linecap="round" stroke-linejoin="round"/>
<path d="M162 1007.34L66.8599 952.19ZM224.92 971.19L129.79 917.13ZM144.84 907.4L240 962.56ZM109.24 1353.17L162 1384.83ZM152 1439.83L56.8799 1384.69ZM319.39 1294.44L267.59 1263.68ZM523.29 1177.35L470.55 1145.68ZM599 1066.05L632.83 1085.65ZM586.23 985.34L604.64 996.01ZM647.75 948.36L667.58 959.85ZM524.94 729.34L586.16 763.75ZM523.22 799.89L428.1 744.74ZM461.26 835.47L427.35 816.9Z" fill="#FFC700"/>
<path d="M162 1007.34L66.8599 952.19M224.92 971.19L129.79 917.13M144.84 907.4L240 962.56M109.24 1353.17L162 1384.83M152 1439.83L56.8799 1384.69M319.39 1294.44L267.59 1263.68M523.29 1177.35L470.55 1145.68M599 1066.05L632.83 1085.65M586.23 985.34L604.64 996.01M647.75 948.36L667.58 959.85M524.94 729.34L586.16 763.75M523.22 799.89L428.1 744.74M461.26 835.47L427.35 816.9" stroke="#231F20" stroke-width="2" stroke-linecap="round" stroke-linejoin="round"/>
<path d="M329.5 1548.93C329.5 1567.27 328.41 1581.4 326.23 1591.32C324.06 1601.26 320.42 1608.93 315.35 1614.32C310.28 1619.71 303.35 1624.88 294.63 1629.89L261.73 1648.78V1527L294.63 1508.1C303.35 1503.1 310.27 1500.39 315.35 1499.9C320.43 1499.41 324.06 1502.83 326.23 1510.14C328.4 1517.45 329.5 1530.36 329.5 1548.93Z" fill="#FFF0BD" stroke="#231F20" stroke-width="2" stroke-linecap="round" stroke-linejoin="round"/>
<path d="M1129.72 1052.7C1129.72 1063.22 1128.49 1070.65 1126.04 1075C1123.59 1079.35 1119.37 1083.23 1113.38 1086.65L1069.59 1111.82V1063L1113.38 1037.84C1119.38 1034.43 1123.6 1033.6 1126.04 1035.35C1128.5 1037.15 1129.72 1043 1129.72 1052.7Z" fill="#FFF0BD" stroke="#231F20" stroke-width="2" stroke-linecap="round" stroke-linejoin="round"/>
<path d="M326.23 1510.1C328.41 1517.43 329.5 1530.38 329.5 1548.93C329.5 1567.27 328.41 1581.4 326.23 1591.32C324.06 1601.26 320.42 1608.93 315.35 1614.32C310.28 1619.71 303.35 1624.88 294.63 1629.89L261.73 1648.78V1527L294.63 1508.1C303.35 1503.1 310.27 1500.39 315.35 1499.9C320.43 1499.41 324.06 1502.79 326.23 1510.1Z" fill="#FFF0BD" stroke="#231F20" stroke-width="2" stroke-linecap="round" stroke-linejoin="round"/>
<path d="M1126 1035.39C1123.53 1033.63 1119.31 1034.46 1113.34 1037.88L1069.59 1063V1111.78L1113.38 1086.61C1119.38 1083.18 1123.6 1079.3 1126.04 1074.96C1128.48 1070.62 1129.71 1063.19 1129.72 1052.66C1129.72 1043 1128.5 1037.15 1126 1035.39ZM1126 1035.39C1123.53 1033.63 1119.31 1034.46 1113.34 1037.88L1069.59 1063V1111.78L1113.38 1086.61C1119.38 1083.18 1123.6 1079.3 1126.04 1074.96C1128.48 1070.62 1129.71 1063.19 1129.72 1052.66C1129.72 1043 1128.5 1037.15 1126 1035.39ZM151.93 1439.88V1881.4L1558.63 1073.58V632.06L151.93 1439.88ZM363.71 1595.65C357.33 1617.65 348.257 1636.86 336.49 1653.29C324.723 1669.72 310.77 1682.56 294.63 1691.81L231 1728.35L220.78 1734.24V1488.5L231 1482.64L294.64 1446.09C310.767 1436.84 324.72 1433.66 336.5 1436.54C348.26 1439.43 357.34 1448.26 363.72 1462.91C370.1 1477.56 373.32 1497.91 373.32 1523.76C373.32 1549.61 370.1 1573.67 363.71 1595.65ZM513.87 1382.17L425.17 1433.11V1462.46L510.6 1413.38V1475L425.17 1524V1554.81L513.87 1503.87V1565.87L425.17 1616.81L384.17 1640.33V1394.66L395.29 1388.28L513.85 1320.2L513.87 1382.17ZM650.71 1487.33L550.71 1544.76L525.43 1559.28V1313.56L566.43 1290.04V1473.79L650.76 1425.36L650.71 1487.33ZM702.59 1457.53L661.59 1481.07V1235.35L702.59 1211.81V1457.53ZM824.41 1387.53L765.57 1421.33L706.94 1209.33L756.4 1180.9L794.12 1335.3L796.95 1333.67L833.77 1136.48L883 1108.2L824.41 1387.53ZM1017.07 1093.17L928.37 1144.1V1173.43L1013.79 1124.43V1186L928.37 1235.06V1265.86L1017.07 1214.92V1276.92L928.37 1327.86L887.37 1351.38V1105.69L898.48 1099.31L1017.05 1031.21L1017.07 1093.17ZM1129.29 1212.46L1111.88 1162.33C1110.12 1157.21 1108.3 1153.51 1106.42 1151.13C1105.57 1150.02 1104.42 1149.16 1103.11 1148.65C1101.8 1148.15 1100.38 1148.01 1099 1148.26C1096 1148.67 1091.74 1150.4 1086.37 1153.49L1069.59 1163.13V1246.75L1028.59 1270.27V1024.59L1113.81 975.65C1126.72 968.243 1137.55 964.967 1146.28 965.82C1154.98 966.67 1161.55 971.41 1166.01 979.98C1170.47 988.55 1172.65 1000.92 1172.65 1017.05C1172.75 1029.13 1171.39 1041.18 1168.6 1052.93C1163.48 1074.69 1150.98 1094 1133.21 1107.56V1111.2C1140.75 1110.06 1146.16 1111.67 1149.43 1116.02C1152.7 1120.37 1155.72 1126.41 1158.49 1134.12L1176.57 1185.34L1129.29 1212.46ZM1312.78 923.34L1224.1 974.28V1003.6L1309.51 954.6V1016.23L1224.1 1065.23V1096.04L1312.78 1045.1V1107.1L1224.1 1158.04L1183.1 1181.56V935.87L1194.22 929.46L1312.76 861.39L1312.78 923.34ZM1469.71 960.48C1463.31 982.48 1454.23 1001.7 1442.46 1018.13C1430.69 1034.56 1416.75 1047.4 1400.63 1056.64L1337 1093.23L1326.76 1099.12V853.38L1367.76 829.86L1400.66 810.96C1416.77 801.713 1430.71 798.53 1442.49 801.41C1454.27 804.29 1463.35 813.08 1469.74 827.78C1476.13 842.447 1479.32 862.733 1479.32 888.64C1479.32 914.547 1476.12 938.507 1469.71 960.52V960.48ZM1421.32 864.67C1416.25 865.16 1409.32 867.88 1400.63 872.9L1367.73 891.79V1013.57L1400.63 994.67C1409.35 989.663 1416.25 984.473 1421.32 979.1C1426.4 973.77 1430.04 966.1 1432.2 956.16C1434.36 946.22 1435.48 932.1 1435.48 913.77C1435.48 895.19 1434.39 882.243 1432.2 874.93C1430 867.64 1426.4 864.26 1421.32 864.71V864.67ZM1126 1035.39C1123.53 1033.63 1119.31 1034.46 1113.34 1037.88L1069.59 1063V1111.78L1113.38 1086.61C1119.38 1083.18 1123.6 1079.3 1126.04 1074.96C1128.48 1070.62 1129.71 1063.19 1129.72 1052.66C1129.72 1043 1128.5 1037.15 1126 1035.39ZM1126 1035.39C1123.53 1033.63 1119.31 1034.46 1113.34 1037.88L1069.59 1063V1111.78L1113.38 1086.61C1119.38 1083.18 1123.6 1079.3 1126.04 1074.96C1128.48 1070.62 1129.71 1063.19 1129.72 1052.66C1129.72 1043 1128.5 1037.15 1126 1035.39ZM1126 1035.39C1123.53 1033.63 1119.31 1034.46 1113.34 1037.88L1069.59 1063V1111.78L1113.38 1086.61C1119.38 1083.18 1123.6 1079.3 1126.04 1074.96C1128.48 1070.62 1129.71 1063.19 1129.72 1052.66C1129.72 1043 1128.5 1037.15 1126 1035.39Z" fill="#99F6E4" stroke="#231F20" stroke-width="2" stroke-linecap="round" stroke-linejoin="round"/>
<path d="M329.5 1548.93C329.5 1567.27 328.41 1581.4 326.23 1591.32C324.06 1601.26 320.42 1608.93 315.35 1614.32C310.28 1619.71 303.35 1624.88 294.63 1629.89L261.73 1648.78V1527L294.63 1508.1C303.35 1503.1 310.27 1500.39 315.35 1499.9C320.43 1499.41 324.06 1502.83 326.23 1510.14C328.4 1517.45 329.5 1530.36 329.5 1548.93Z" fill="#6A8B85" stroke="#231F20" stroke-width="2" stroke-linecap="round" stroke-linejoin="round"/>
<path d="M1129.72 1052.7C1129.72 1063.22 1128.49 1070.65 1126.04 1075C1123.59 1079.35 1119.37 1083.23 1113.38 1086.65L1069.59 1111.82V1063L1113.38 1037.84C1119.38 1034.43 1123.6 1033.6 1126.04 1035.35C1128.5 1037.15 1129.72 1043 1129.72 1052.7Z" fill="#6A8B85" stroke="#231F20" stroke-width="2" stroke-linecap="round" stroke-linejoin="round"/>
<path d="M1435.48 913.81C1435.48 932.143 1434.39 946.273 1432.2 956.2C1430.04 966.14 1426.4 973.81 1421.32 979.14C1416.24 984.47 1409.32 989.7 1400.63 994.71L1367.73 1013.61V891.83L1400.63 872.94C1409.35 867.94 1416.25 865.2 1421.32 864.71C1426.39 864.22 1430.04 867.64 1432.2 874.97C1434.36 882.3 1435.48 895.23 1435.48 913.81Z" fill="#FFF0BD" stroke="#231F20" stroke-width="2" stroke-linecap="round" stroke-linejoin="round"/>
<path d="M1435.48 913.81C1435.48 932.143 1434.39 946.273 1432.2 956.2C1430.04 966.14 1426.4 973.81 1421.32 979.14C1416.24 984.47 1409.32 989.7 1400.63 994.71L1367.73 1013.61V891.83L1400.63 872.94C1409.35 867.94 1416.25 865.2 1421.32 864.71C1426.39 864.22 1430.04 867.64 1432.2 874.97C1434.36 882.3 1435.48 895.23 1435.48 913.81Z" fill="#6A8B85" stroke="#231F20" stroke-width="2" stroke-linecap="round" stroke-linejoin="round"/>
<path d="M161.98 1384.84L224.92 1348.69V971.2L161.98 1007.34V1384.84Z" fill="#99F6E4" stroke="#231F20" stroke-width="2" stroke-linecap="round" stroke-linejoin="round"/>
<path d="M239.96 1057.79L319.32 1012.22V1294.48L382.26 1258.34V976.08L461.26 930.71V835.47L239.96 962.56V1057.79Z" fill="#99F6E4" stroke="#231F20" stroke-width="2" stroke-linecap="round" stroke-linejoin="round"/>
<path d="M523.22 1177.38L586.16 1141.24V763.75L523.22 799.89V1177.38Z" fill="#99F6E4" stroke="#231F20" stroke-width="2" stroke-linecap="round" stroke-linejoin="round"/>
<path d="M814.13 846.94C810.13 834.207 803.1 825.187 793.04 819.88C782.98 814.573 768.81 814.907 750.53 820.88L680.22 843.78C677.152 844.836 673.924 845.353 670.68 845.31C669.584 845.27 668.525 844.906 667.636 844.266C666.746 843.625 666.066 842.736 665.68 841.71C664.557 838.847 664.039 835.783 664.16 832.71C664.097 827.416 665.185 822.172 667.35 817.34C669.47 812.75 673.35 807.99 678.89 803.11C684.43 798.23 692.62 792.7 703.34 786.55C717.4 778.47 727.947 773.533 734.98 771.74C741.98 769.97 746.7 771.02 748.98 774.94C751.26 778.86 752.5 785.32 752.5 794.35V802.79L815.44 766.65V763.25C815.44 735.097 811.59 712.997 803.89 696.95C796.19 680.903 784.587 671.787 769.08 669.6C753.573 667.487 733.88 673.287 710 687C689.68 698.667 672.603 712.043 658.77 727.13C645.485 741.421 634.223 757.468 625.3 774.82C617.095 790.75 610.907 807.64 606.88 825.1C603.222 840.767 601.31 856.792 601.18 872.88C601.18 893.16 603.513 909.473 608.18 921.82C612.847 934.167 619.897 942.227 629.33 946C638.71 949.8 650.313 949.427 664.14 944.88L734.45 920.27C743.61 916.937 749.69 916.07 752.69 917.67C755.69 919.27 757.203 923.477 757.23 930.29C757.342 935.31 756.486 940.304 754.71 945C753.05 949.17 749.18 953.63 743.16 958.39C737.14 963.15 727.77 969.2 715 976.51C700.94 984.59 690.567 989.613 683.88 991.58C677.18 993.58 672.77 992.79 670.65 989.31C668.53 985.83 667.46 979.99 667.46 971.7V959.87L604.55 996V999.4C604.55 1031.32 609.017 1054.76 617.95 1069.72C626.883 1084.68 639.603 1092.22 656.11 1092.34C672.637 1092.41 692.277 1085.92 715.03 1072.86C740.263 1058.37 760.577 1040.98 775.97 1020.67C791.363 1000.36 802.58 978.903 809.62 956.29C816.647 933.623 820.163 911.597 820.17 890.21C820.17 874.07 818.157 859.647 814.13 846.94Z" fill="#99F6E4" stroke="#231F20" stroke-width="2" stroke-linecap="round" stroke-linejoin="round"/>
<path d="M1943.19 398.1C1943.19 225.1 1859.59 132.49 1756.84 191.5L883 693.3V852.76L1756.84 351C1807.35 322 1848.44 367.57 1848.44 452.56C1848.44 537.55 1807.35 630.29 1756.84 659.3L1640.73 725.97V885.38L1756.84 818.7C1859.59 759.69 1943.19 571 1943.19 398.1Z" fill="#99F6E4" stroke="#231F20" stroke-width="2" stroke-linecap="round" stroke-linejoin="round"/>
</svg>
