<svg width="480" height="320" viewBox="0 0 480 320" fill="none" xmlns="http://www.w3.org/2000/svg">
<g clip-path="url(#clip0_3_18)">
<mask id="mask0_3_18" style="mask-type:alpha" maskUnits="userSpaceOnUse" x="0" y="0" width="480" height="320">
<path d="M480 0H0V320H480V0Z" fill="#565454"/>
</mask>
<g mask="url(#mask0_3_18)">
<path d="M131.182 160.133L131.43 270.713L51.3478 255.435L51.1001 144.85L131.182 160.133Z" fill="#1EFAFF" stroke="#12192D" stroke-width="0.3" stroke-linecap="round" stroke-linejoin="round"/>
<path d="M131.182 222.619L131.43 270.713L51.3478 255.435L51.1001 222.961L131.182 222.619Z" fill="#00DCFF" stroke="#12192D" stroke-width="0.3" stroke-linejoin="round"/>
<path d="M131.182 160.133L184.556 138.568L184.804 249.153L131.43 270.713L131.182 160.133Z" fill="#00AFD2" stroke="#12192D" stroke-width="0.3" stroke-linejoin="round"/>
<path d="M51.1001 144.85L104.474 123.291L184.556 138.568L131.182 160.133L51.1001 144.85Z" fill="#00DCFF" stroke="#12192D" stroke-width="0.3" stroke-linecap="round" stroke-linejoin="round"/>
<path opacity="0.9" d="M70.2881 137.103L144.874 150.257L176.404 137.014L104.474 123.291L70.2881 137.103Z" fill="#11192F"/>
<path d="M83.1992 102.427L93.1963 104.187L99.515 101.594L99.8523 132.782L83.5997 139.449L83.1992 102.427Z" fill="#009D73" stroke="#12192D" stroke-width="0.3" stroke-miterlimit="10" stroke-linecap="round"/>
<path d="M93.0859 93.8001L93.1966 104.187L83.1995 102.427L83.6 139.448L73.5976 137.688L73.1971 100.662L63.1842 98.8961L63.0735 88.509L93.0859 93.8001Z" fill="#6EFFDA" stroke="#12192D" stroke-width="0.3" stroke-linecap="round" stroke-linejoin="round"/>
<path d="M93.0857 93.8002L109.338 87.1337L109.454 97.5207L93.1964 104.187L93.0857 93.8002Z" fill="#34CA9E" stroke="#12192D" stroke-width="0.3" stroke-linecap="round" stroke-linejoin="round"/>
<path d="M63.0735 88.5092L79.3313 81.8427L109.338 87.1337L93.0859 93.8002L63.0735 88.5092Z" fill="#34CA9E" stroke="#12192D" stroke-width="0.3" stroke-linecap="round" stroke-linejoin="round"/>
<path d="M123.383 104.071C127.725 109.821 127.625 116.44 127.704 123.57C127.783 130.7 128.026 137.383 123.794 141.62C120.848 144.566 117.438 145.836 112.469 144.94C107.499 144.044 104.037 141.599 101.038 137.604C96.6958 131.86 96.796 125.235 96.7169 118.105C96.6379 110.975 96.4007 104.293 100.617 100.056C103.547 97.1255 106.941 95.8396 111.926 96.7302C116.911 97.6208 120.368 100.087 123.383 104.071ZM116.342 133.13C117.238 131.891 117.786 130.458 117.691 121.805C117.596 113.151 117.012 111.454 116.11 109.895C115.67 109.175 115.084 108.556 114.39 108.077C113.695 107.599 112.908 107.272 112.079 107.117C110.255 106.796 108.827 107.481 108.1 108.487C107.204 109.721 106.646 111.217 106.74 119.871C106.835 128.524 107.431 130.158 108.353 131.717C108.788 132.445 109.371 133.074 110.063 133.563C110.756 134.052 111.543 134.391 112.374 134.558C113.106 134.721 113.869 134.673 114.575 134.42C115.281 134.167 115.901 133.72 116.363 133.13" fill="#6EFFDA"/>
<path d="M116.342 133.13C117.238 131.891 117.786 130.458 117.691 121.805C117.596 113.151 117.012 111.454 116.11 109.895C115.67 109.175 115.084 108.556 114.39 108.077C113.695 107.599 112.908 107.272 112.079 107.117C110.255 106.796 108.827 107.481 108.1 108.487C107.204 109.721 106.646 111.217 106.74 119.871C106.835 128.524 107.431 130.158 108.353 131.717C108.788 132.445 109.371 133.074 110.063 133.563C110.756 134.052 111.543 134.391 112.374 134.558C113.106 134.721 113.869 134.673 114.575 134.42C115.281 134.167 115.901 133.72 116.363 133.13M123.383 104.071C127.725 109.821 127.625 116.44 127.704 123.57C127.783 130.7 128.026 137.383 123.794 141.62C120.848 144.566 117.438 145.836 112.469 144.94C107.499 144.044 104.037 141.599 101.038 137.604C96.6958 131.86 96.796 125.235 96.7169 118.105C96.6379 110.975 96.4007 104.293 100.617 100.056C103.547 97.1255 106.941 95.8396 111.926 96.7302C116.911 97.6208 120.368 100.087 123.383 104.071Z" stroke="#12192D" stroke-width="0.3" stroke-linecap="round" stroke-linejoin="round"/>
<path d="M116.342 133.13C117.238 131.891 117.786 130.458 117.691 121.805C117.596 113.151 117.011 111.46 116.11 109.9C115.671 109.18 115.085 108.56 114.39 108.08C113.695 107.601 112.908 107.273 112.079 107.117C111.221 106.952 110.335 107.042 109.528 107.376C109.266 107.487 109.018 107.631 108.79 107.802C108.716 107.863 108.646 107.928 108.579 107.997C108.485 108.082 108.39 108.161 108.305 108.25C108.233 108.326 108.164 108.405 108.1 108.488L107.973 108.677C107.903 108.776 107.838 108.878 107.778 108.983C107.731 109.067 107.683 109.157 107.636 109.257C107.594 109.347 107.552 109.436 107.515 109.536L107.483 109.621C107.452 109.7 107.425 109.779 107.399 109.863C107.383 109.901 107.371 109.939 107.362 109.979C107.33 110.069 107.304 110.163 107.278 110.264C107.271 110.299 107.262 110.334 107.251 110.369C107.22 110.501 107.188 110.648 107.156 110.801C107.12 110.975 107.088 111.159 107.062 111.36C107.035 111.56 106.998 111.834 106.967 112.092V112.287C106.935 112.582 106.909 112.898 106.888 113.241C106.888 113.331 106.888 113.41 106.888 113.499C106.888 113.7 106.888 113.921 106.856 114.142C106.856 114.269 106.856 114.385 106.856 114.522C106.856 114.859 106.856 115.223 106.824 115.602C106.824 115.966 106.824 116.361 106.824 116.772V117.12C106.824 117.41 106.824 117.715 106.824 118.026V118.437C106.824 118.875 106.824 119.328 106.824 119.813C106.824 120.298 106.824 120.814 106.824 121.283C106.824 121.399 106.824 121.504 106.824 121.62C106.824 121.879 106.824 122.147 106.824 122.369C106.824 122.432 106.824 122.5 106.824 122.564C106.824 122.706 106.824 122.843 106.824 122.975C106.824 123.207 106.824 123.433 106.851 123.649C106.851 123.681 106.851 123.712 106.851 123.739V124.129C106.851 124.398 106.877 124.656 106.893 124.903C106.893 124.983 106.893 125.062 106.893 125.135L106.925 125.61C106.925 125.784 106.951 125.957 106.961 126.137C106.972 126.316 106.961 126.426 107.004 126.569C107.046 126.711 107.03 126.874 107.041 127.011C107.041 127.064 107.041 127.112 107.041 127.164C107.072 127.486 107.114 127.781 107.151 128.055L107.183 128.271C107.22 128.503 107.257 128.719 107.299 128.919C107.299 128.919 107.299 128.967 107.299 128.988C107.341 129.193 107.383 129.378 107.431 129.557L107.473 129.71C107.51 129.836 107.546 129.963 107.583 130.079L107.631 130.216C107.699 130.416 107.768 130.6 107.847 130.774C107.845 130.79 107.845 130.806 107.847 130.822C107.978 131.111 108.126 131.392 108.29 131.665C108.386 131.827 108.492 131.983 108.606 132.134C108.725 132.299 108.853 132.457 108.99 132.608C109.114 132.748 109.246 132.88 109.386 133.003C109.386 133.003 109.438 133.051 109.465 133.077C109.602 133.198 109.744 133.32 109.892 133.436C110.055 133.557 110.224 133.667 110.419 133.778H110.455C110.626 133.881 110.802 133.974 110.982 134.057L111.03 134.084C111.224 134.17 111.423 134.246 111.625 134.31C112.045 134.445 112.481 134.523 112.922 134.542H112.98C113.155 134.552 113.331 134.552 113.507 134.542H113.591C113.769 134.526 113.945 134.498 114.118 134.458L114.271 134.416C114.408 134.379 114.545 134.337 114.671 134.289C115.327 134.07 115.907 133.668 116.342 133.13Z" fill="#009D73" stroke="#12192D" stroke-width="0.3" stroke-miterlimit="10" stroke-linecap="round"/>
<path d="M143.973 122.358V122.274C143.973 121.441 143.973 120.593 143.973 119.734V119.597C143.973 118.711 143.973 117.81 143.941 116.904C143.941 115.887 143.941 114.88 143.904 113.889V113.668C143.904 113.636 143.904 113.605 143.904 113.573C143.904 112.519 143.851 111.465 143.788 110.411V110.374C143.753 109.798 143.706 109.229 143.646 108.667V108.44L143.614 108.219C143.577 107.881 143.535 107.549 143.488 107.217C143.488 107.112 143.461 107.001 143.446 106.896C143.43 106.791 143.446 106.817 143.446 106.775C143.398 106.464 143.34 106.163 143.282 105.858C143.282 105.742 143.245 105.631 143.224 105.521C143.222 105.503 143.222 105.485 143.224 105.468C143.135 105.041 143.04 104.619 142.929 104.203C142.818 103.776 142.692 103.355 142.555 102.933C142.555 102.933 142.555 102.875 142.529 102.843L142.46 102.669C142.302 102.206 142.123 101.742 141.933 101.283C141.901 101.215 141.88 101.136 141.843 101.067C141.827 101.027 141.808 100.988 141.785 100.951C141.554 100.424 141.295 99.9238 141.011 99.4232C140.953 99.323 140.89 99.2229 140.826 99.1228C140.563 98.6748 140.273 98.2322 139.962 97.7948C139.915 97.7315 139.883 97.6683 139.841 97.605C139.799 97.5418 139.741 97.468 139.688 97.4048C139.256 96.8304 138.808 96.2981 138.355 95.7922C138.313 95.7395 138.27 95.6815 138.223 95.6288C138.023 95.4127 137.817 95.2125 137.617 95.0069C137.496 94.8857 137.38 94.754 137.259 94.6381L137.174 94.5537C136.895 94.285 136.61 94.0267 136.315 93.779L136.136 93.6368L135.936 93.4734L135.572 93.1835C135.34 93.0096 135.108 92.841 134.871 92.6829L134.75 92.6038L134.618 92.5195L134.191 92.2455C133.97 92.1137 133.749 91.982 133.522 91.8608L133.322 91.7607L133.174 91.6816L132.837 91.513C132.605 91.4023 132.373 91.2969 132.131 91.1968L131.799 91.0597L131.625 90.9965C131.546 90.9649 131.467 90.928 131.388 90.9016C131.124 90.8015 130.861 90.7119 130.587 90.6276L130.16 90.5064L129.949 90.4484L129.712 90.3799C129.385 90.2956 129.059 90.2218 128.716 90.1533L128.247 90.0637L127.63 89.9636C127.277 89.9162 126.935 89.874 126.576 89.8477H126.276H126.039H125.601C125.28 89.8477 124.964 89.8477 124.658 89.8477L124.384 89.874H124.142C123.999 89.874 123.847 89.874 123.704 89.9109C123.353 89.9531 123.016 90.011 122.692 90.0848H122.608C122.513 90.0848 122.424 90.1428 122.329 90.1639C122.05 90.2376 121.765 90.3061 121.496 90.401C121.312 90.4642 121.127 90.5328 120.969 90.6065L104.669 97.2941C105.119 97.1158 105.58 96.968 106.05 96.8514L106.324 96.7777C106.829 96.6625 107.341 96.5832 107.858 96.5405H108.105C108.654 96.5061 109.205 96.5061 109.755 96.5405H109.992C110.645 96.5844 111.296 96.6618 111.942 96.7724C112.532 96.8778 113.096 97.0095 113.644 97.1571L113.855 97.2151C114.382 97.3626 114.851 97.5207 115.325 97.7052L115.494 97.7684C115.968 97.9581 116.426 98.1689 116.869 98.3955L117.017 98.4693C117.465 98.7012 117.897 98.9594 118.318 99.2282L118.445 99.3125C118.856 99.5865 119.246 99.8764 119.636 100.187C119.699 100.24 119.768 100.287 119.831 100.345C120.216 100.662 120.59 100.994 120.953 101.347C121.075 101.463 121.191 101.589 121.312 101.71C121.559 101.969 121.812 102.237 122.055 102.501C122.508 103.028 122.951 103.555 123.383 104.113C123.483 104.24 123.567 104.372 123.657 104.503C123.973 104.943 124.263 105.385 124.526 105.831L124.706 106.132C124.992 106.628 125.252 107.138 125.486 107.66L125.628 107.997C125.823 108.451 126.002 108.914 126.155 109.378C126.181 109.468 126.218 109.557 126.25 109.647C126.387 110.063 126.513 110.49 126.624 110.917C126.729 111.333 126.829 111.755 126.914 112.182C126.914 112.308 126.961 112.44 126.987 112.572C127.045 112.872 127.103 113.178 127.151 113.489L127.214 113.937C127.256 114.263 127.304 114.595 127.341 114.927L127.388 115.381C127.441 115.95 127.493 116.519 127.525 117.093V117.12C127.588 118.174 127.62 119.228 127.641 120.282C127.641 120.382 127.641 120.482 127.641 120.582C127.641 121.583 127.641 122.59 127.678 123.607C127.678 124.519 127.678 125.42 127.678 126.316V126.426C127.678 127.291 127.678 128.139 127.678 128.977C127.678 129.061 127.678 129.135 127.678 129.22C127.678 129.799 127.641 130.368 127.604 130.932C127.604 131.027 127.604 131.122 127.604 131.217C127.572 131.67 127.536 132.118 127.488 132.561C127.488 132.782 127.435 132.998 127.404 133.219C127.372 133.441 127.367 133.562 127.341 133.746C127.288 134.11 127.225 134.463 127.156 134.8C127.156 134.879 127.119 134.958 127.103 135.038C127.045 135.301 126.987 135.565 126.924 135.823L126.845 136.113C126.771 136.376 126.698 136.64 126.613 136.887L126.55 137.072C126.45 137.377 126.334 137.678 126.207 137.973C126.176 138.047 126.144 138.12 126.107 138.194C126.009 138.423 125.904 138.644 125.791 138.858L125.649 139.132C125.538 139.338 125.417 139.533 125.291 139.733C125.233 139.823 125.18 139.923 125.117 140.012C125.053 140.102 124.927 140.265 124.832 140.397C124.737 140.529 124.579 140.745 124.442 140.924C124.231 141.177 124.01 141.451 123.773 141.667C122.628 142.856 121.255 143.803 119.736 144.45L135.989 137.783C137.507 137.136 138.88 136.189 140.025 135.001C140.241 134.785 140.442 134.569 140.631 134.342L140.695 134.258C140.837 134.089 140.963 133.915 141.09 133.731C141.216 133.546 141.253 133.525 141.327 133.42C141.327 133.42 141.353 133.367 141.369 133.346C141.385 133.325 141.485 133.156 141.548 133.061C141.612 132.966 141.733 132.782 141.812 132.634C141.843 132.582 141.87 132.524 141.901 132.466C141.933 132.408 141.996 132.287 142.044 132.192C142.091 132.097 142.149 132.002 142.197 131.907L142.365 131.528L142.465 131.306L142.513 131.19C142.613 130.959 142.702 130.716 142.787 130.474C142.784 130.451 142.784 130.428 142.787 130.405C142.787 130.342 142.824 130.279 142.845 130.221C142.897 130.057 142.955 129.894 143.003 129.731C143.05 129.567 143.05 129.541 143.077 129.446L143.156 129.151C143.156 129.077 143.198 129.009 143.214 128.935C143.261 128.75 143.298 128.561 143.335 128.371C143.335 128.292 143.372 128.213 143.388 128.134V128.06C143.451 127.739 143.509 127.412 143.556 127.08C143.556 126.901 143.604 126.722 143.625 126.553C143.646 126.384 143.683 126.152 143.704 125.947C143.751 125.504 143.788 125.051 143.82 124.598C143.82 124.598 143.82 124.545 143.82 124.513C143.82 124.482 143.82 124.387 143.82 124.324C143.851 123.76 143.878 123.185 143.888 122.606C143.967 122.463 143.967 122.411 143.973 122.358Z" fill="#34CA9E" stroke="#12192D" stroke-width="0.3" stroke-linecap="round" stroke-linejoin="round"/>
<path d="M180.788 114.806C180.788 114.537 180.788 114.279 180.757 113.995L180.72 113.631C180.72 113.552 180.72 113.468 180.72 113.389C180.72 113.31 180.72 113.225 180.72 113.146C180.688 112.846 180.651 112.551 180.604 112.25C180.607 112.205 180.607 112.159 180.604 112.113C180.604 112.029 180.578 111.945 180.562 111.866C180.53 111.676 180.499 111.486 180.462 111.296C180.425 111.107 180.383 110.964 180.346 110.801C180.309 110.638 180.293 110.559 180.261 110.443L180.214 110.232C180.151 109.989 180.072 109.747 179.998 109.505C179.95 109.357 179.914 109.204 179.866 109.057C179.856 109.027 179.847 108.997 179.84 108.967C179.808 108.872 179.761 108.783 179.729 108.688C179.576 108.256 179.413 107.829 179.228 107.407C179.197 107.333 179.176 107.254 179.144 107.181C179.113 107.107 179.044 106.991 178.997 106.896C178.812 106.495 178.607 106.1 178.391 105.71L178.143 105.262C177.837 104.735 177.51 104.24 177.157 103.75C177.155 103.741 177.155 103.732 177.157 103.723C177.105 103.65 177.036 103.581 176.983 103.507C176.715 103.16 176.456 102.817 176.146 102.485L176.056 102.374C175.792 102.085 175.529 101.8 175.239 101.531C175.239 101.531 175.239 101.531 175.213 101.531C174.97 101.299 174.723 101.073 174.464 100.857L174.18 100.63C174.111 100.572 174.043 100.514 173.969 100.461L173.753 100.287C173.537 100.124 173.316 99.9607 173.084 99.8079L172.894 99.6867L172.731 99.5813L172.42 99.381C172.198 99.2493 171.977 99.1175 171.745 98.9963L171.54 98.8909L171.381 98.8066L171.071 98.6485C170.844 98.5379 170.607 98.4324 170.37 98.3323L170.106 98.2269L169.927 98.1584L169.648 98.0477C169.4 97.9581 169.147 97.8686 168.884 97.7895L168.573 97.6999L168.372 97.642L168.088 97.5629C167.803 97.4891 167.508 97.4206 167.213 97.3626L166.823 97.2889L150.702 94.4484L134.344 101.083L150.465 103.924C150.992 104.019 151.519 104.14 152.009 104.277L152.209 104.335C152.677 104.472 153.13 104.625 153.569 104.793L153.743 104.862C154.182 105.041 154.609 105.236 155.024 105.447L155.176 105.526C155.587 105.737 155.983 105.968 156.367 106.216L156.531 106.322C156.905 106.564 157.263 106.849 157.611 107.096L157.817 107.265C158.18 107.555 158.528 107.855 158.871 108.171C159.192 108.477 159.492 108.804 159.788 109.13C160.083 109.457 160.357 109.805 160.62 110.153L160.815 110.401C161.169 110.886 161.498 111.389 161.801 111.908C161.89 112.055 161.969 112.203 162.054 112.356C162.27 112.746 162.47 113.141 162.66 113.541C162.739 113.71 162.818 113.879 162.892 114.068C163.071 114.49 163.239 114.917 163.387 115.349C163.434 115.47 163.482 115.591 163.524 115.718C163.566 115.844 163.614 116.018 163.656 116.166C163.751 116.477 163.845 116.788 163.925 117.104C163.951 117.225 163.977 117.346 164.009 117.468C164.088 117.815 164.162 118.168 164.225 118.522C164.225 118.606 164.251 118.69 164.267 118.774C164.336 119.201 164.388 119.623 164.43 120.05V120.292C164.467 120.74 164.494 121.183 164.499 121.626C164.504 122.287 164.474 122.949 164.409 123.607C164.412 123.628 164.412 123.649 164.409 123.67C164.346 124.292 164.248 124.91 164.114 125.52C164.103 125.558 164.094 125.597 164.088 125.636C163.947 126.221 163.771 126.796 163.561 127.359C163.561 127.401 163.529 127.438 163.519 127.475C163.323 127.996 163.096 128.505 162.839 128.998L162.749 129.162C162.507 129.611 162.232 130.043 161.927 130.453C161.853 130.558 161.774 130.658 161.69 130.764C161.383 131.161 161.049 131.536 160.689 131.886L160.636 131.939C160.251 132.291 159.841 132.613 159.408 132.903L159.081 133.114C158.626 133.399 158.148 133.648 157.653 133.857L173.911 127.191C174.405 126.98 174.881 126.73 175.334 126.442L175.661 126.237C176.094 125.948 176.505 125.625 176.889 125.272C176.909 125.256 176.927 125.236 176.941 125.214C177.201 124.971 177.447 124.714 177.679 124.445C177.774 124.334 177.858 124.208 177.948 124.097L178.185 123.786C178.254 123.691 178.333 123.602 178.396 123.507C178.575 123.249 178.738 122.98 178.896 122.706C178.939 122.637 178.97 122.564 179.007 122.495C179.038 122.442 179.067 122.388 179.091 122.332C179.16 122.21 179.228 122.089 179.286 121.963C179.402 121.726 179.508 121.489 179.608 121.246C179.666 121.104 179.719 120.956 179.771 120.809L179.819 120.693C179.819 120.645 179.856 120.598 179.871 120.545C179.95 120.319 180.024 120.092 180.093 119.86C180.161 119.628 180.219 119.402 180.277 119.17C180.277 119.101 180.304 119.038 180.319 118.969C180.335 118.901 180.319 118.89 180.346 118.854C180.372 118.727 180.404 118.601 180.43 118.479C180.472 118.247 180.514 118.01 180.546 117.778C180.578 117.547 180.614 117.304 180.641 117.062C180.638 117.041 180.638 117.02 180.641 116.999C180.638 116.979 180.638 116.96 180.641 116.941C180.641 116.74 180.678 116.535 180.694 116.329C180.709 116.124 180.72 115.829 180.725 115.576C180.73 115.323 180.725 115.165 180.725 114.959L180.788 114.806Z" fill="#34CA9E" stroke="#12192D" stroke-width="0.3" stroke-linecap="round" stroke-linejoin="round"/>
<path d="M150.481 103.924L134.344 101.083L134.871 148.513L144.884 150.278L144.7 133.362L150.823 134.416C159.856 135.997 164.631 129.415 164.525 121.626C164.42 113.837 159.514 105.521 150.481 103.924ZM150.238 123.892L144.578 122.896L144.473 113.31L150.154 114.306C152.9 114.79 154.528 117.394 154.555 119.865C154.581 122.337 152.979 124.376 150.238 123.892Z" fill="#6EFFDA" stroke="#12192D" stroke-width="0.3" stroke-linecap="round" stroke-linejoin="round"/>
<path d="M157.706 133.862C157.747 133.843 157.788 133.822 157.827 133.799C155.601 134.691 153.161 134.908 150.813 134.421L144.689 133.367L144.873 150.284L161.131 143.617L161.01 132.55L157.706 133.862Z" fill="#009D73" stroke="#12192D" stroke-width="0.3" stroke-miterlimit="10" stroke-linecap="round"/>
<path d="M150.154 114.306L144.494 113.31L144.6 122.896L154.449 118.854C154.283 117.748 153.782 116.72 153.014 115.907C152.247 115.094 151.249 114.535 150.154 114.306Z" fill="#34CA9E" stroke="#12192D" stroke-width="0.3" stroke-linecap="round" stroke-linejoin="round"/>
<path d="M154.533 119.865C154.53 119.526 154.494 119.187 154.428 118.854L144.578 122.896L150.238 123.892C150.558 123.952 150.883 123.975 151.208 123.96C151.483 123.946 151.755 123.9 152.02 123.823L152.104 123.797C153.68 123.296 154.554 121.699 154.533 119.865Z" fill="#009D73" stroke="#12192D" stroke-width="0.3" stroke-miterlimit="10" stroke-linecap="round"/>
<path opacity="0.8" d="M360.288 143.271C367.009 142.117 372.285 140.172 372.071 138.927C371.857 137.682 366.236 137.608 359.514 138.762C352.793 139.916 347.518 141.86 347.732 143.105C347.946 144.35 353.567 144.424 360.288 143.271Z" fill="#11192F"/>
<path d="M352.025 143.849C359.409 143.849 365.395 137.863 365.395 130.479C365.395 123.095 359.409 117.109 352.025 117.109C344.641 117.109 338.655 123.095 338.655 130.479C338.655 137.863 344.641 143.849 352.025 143.849Z" fill="#F0B4FF" stroke="#12192D" stroke-width="0.3" stroke-linejoin="round"/>
<path d="M347.214 134.368C344.277 134.373 341.382 133.662 338.782 132.297C339.048 134.248 339.741 136.116 340.813 137.768C341.885 139.419 343.308 140.814 344.981 141.852C346.654 142.89 348.536 143.545 350.491 143.772C352.447 143.998 354.429 143.79 356.295 143.162C358.161 142.534 359.865 141.501 361.286 140.138C362.706 138.775 363.808 137.115 364.513 135.276C365.218 133.438 365.508 131.467 365.362 129.503C365.217 127.54 364.64 125.632 363.672 123.918C362.204 127.043 359.876 129.685 356.962 131.536C354.047 133.386 350.666 134.369 347.214 134.368Z" fill="#C387FA" stroke="#12192D" stroke-width="0.3" stroke-linejoin="round"/>
<path opacity="0.9" d="M215.502 293.015L414.775 241.891L347.388 232.136L347.293 238.961L215.502 293.015Z" fill="#11192F"/>
<path opacity="0.9" d="M108.526 271.97C115.907 270.703 121.455 267.139 120.918 264.009C120.38 260.88 113.962 259.37 106.581 260.637C99.1998 261.904 93.6519 265.468 94.1891 268.597C94.7263 271.727 101.145 273.237 108.526 271.97Z" fill="#11192F"/>
<path d="M101.855 267.403C111.146 267.403 118.677 259.872 118.677 250.581C118.677 241.291 111.146 233.76 101.855 233.76C92.5648 233.76 85.0334 241.291 85.0334 250.581C85.0334 259.872 92.5648 267.403 101.855 267.403Z" fill="#FFE48F" stroke="#12192D" stroke-width="0.3" stroke-linejoin="round"/>
<path d="M95.7998 255.472C92.1043 255.477 88.4631 254.582 85.1914 252.863C85.5267 255.317 86.3996 257.667 87.748 259.744C89.0963 261.822 90.8867 263.576 92.9914 264.881C95.0961 266.187 97.4631 267.011 99.9233 267.296C102.384 267.581 104.876 267.319 107.224 266.529C109.571 265.739 111.715 264.441 113.502 262.727C115.29 261.012 116.677 258.924 117.564 256.612C118.451 254.3 118.817 251.82 118.634 249.35C118.452 246.88 117.727 244.481 116.511 242.323C114.663 246.255 111.734 249.579 108.066 251.908C104.399 254.236 100.144 255.472 95.7998 255.472Z" fill="#FFC13C" stroke="#12192D" stroke-width="0.3" stroke-linejoin="round"/>
<path d="M104.079 247.388L141.96 231.52L253.135 251.646L215.222 267.198L104.079 247.388Z" fill="#34CA9E" stroke="#12192D" stroke-width="0.3" stroke-linecap="round" stroke-linejoin="round"/>
<path d="M104.079 247.388L104.358 273.205L215.502 293.015L215.222 267.198L104.079 247.388Z" fill="#6EFFDA" stroke="#12192D" stroke-width="0.3" stroke-linecap="round" stroke-linejoin="round"/>
<path d="M141.68 205.708L179.671 190.156L290.735 209.966L252.823 225.517L141.68 205.708Z" fill="#34CA9E" stroke="#12192D" stroke-width="0.3" stroke-linecap="round" stroke-linejoin="round"/>
<path d="M141.68 205.708L141.959 231.52L253.103 251.335L252.823 225.518L141.68 205.708Z" fill="#6EFFDA" stroke="#12192D" stroke-width="0.3" stroke-linecap="round" stroke-linejoin="round"/>
<path d="M179.392 164.339L237.093 140.239L347.293 160.433L290.535 184.154L179.392 164.339Z" fill="#34CA9E" stroke="#12192D" stroke-width="0.3" stroke-linecap="round" stroke-linejoin="round"/>
<path d="M253.103 251.335L252.824 225.517L290.636 210.008L290.535 184.154L347.293 160.433V238.961L215.502 293.015L215.222 267.198L253.103 251.335Z" fill="#009D73" stroke="#12192D" stroke-width="0.3" stroke-miterlimit="10" stroke-linecap="round"/>
<path d="M179.392 164.339L179.671 190.156L290.815 209.966L290.535 184.154L179.392 164.339Z" fill="#6EFFDA" stroke="#12192D" stroke-width="0.3" stroke-linecap="round" stroke-linejoin="round"/>
<path d="M290.814 209.966L347.293 187.01" stroke="#11192F" stroke-width="0.3" stroke-linecap="round" stroke-linejoin="round"/>
<path d="M253.103 251.335L347.293 212.943" stroke="#11192F" stroke-width="0.3" stroke-linecap="round" stroke-linejoin="round"/>
<path opacity="0.9" d="M205.336 162.621L289.692 177.851L319.135 165.772L234.279 150.568L205.336 162.621Z" fill="#11192F"/>
<path d="M213.13 133.572L236.845 123.849L261.419 128.181L237.704 137.91L213.13 133.572Z" fill="#FFC13C" stroke="#12192D" stroke-width="0.3" stroke-linejoin="round"/>
<path d="M262.056 28.4421C261.139 28.8216 260.212 29.1694 259.268 29.4961L258.842 29.6384L257.914 29.9441L257.387 30.1127L256.428 30.392L255.901 30.5396C255.522 30.645 255.132 30.7451 254.736 30.8452L254.415 30.9296C253.914 31.056 253.408 31.172 252.892 31.2879L252.365 31.3986L251.448 31.5883L250.831 31.7042C250.536 31.7569 250.241 31.8149 249.941 31.8623L249.282 31.973L248.391 32.1153L247.696 32.2102L246.794 32.3366L246.099 32.421L245.045 32.5422L244.349 32.6159L243.232 32.7213L242.542 32.7793C242.124 32.818 241.702 32.8496 241.277 32.8742L240.681 32.9163L238.758 33.0323L215.043 42.7553C215.696 42.7237 216.339 42.6868 216.966 42.6447L217.562 42.6025L218.827 42.5077L219.517 42.4444L220.634 42.339L221.33 42.2705L222.384 42.1493L222.779 42.1019L223.08 42.0597L223.986 41.9385L224.676 41.8384L225.567 41.7014L226.231 41.5907L227.095 41.4326L227.707 41.3219L228.634 41.1269C228.787 41.0953 228.945 41.069 229.098 41.0321H229.166C229.693 40.9214 230.189 40.8002 230.689 40.679L231.021 40.5947L232.181 40.289L232.708 40.1414C233.029 40.0519 233.351 39.957 233.667 39.8569L234.194 39.6935L235.122 39.3878L235.448 39.2824L235.548 39.2403C236.49 38.9135 237.419 38.5622 238.336 38.1863L262.056 28.4421Z" fill="#FF9946" stroke="#12192D" stroke-width="0.3" stroke-linejoin="round"/>
<path d="M268.786 143.39L292.496 133.662L313.091 137.293L289.381 147.021L268.786 143.39Z" fill="#FFC13C" stroke="#12192D" stroke-width="0.3" stroke-linejoin="round"/>
<path d="M289.381 147.021L313.091 137.293L313.407 166.336L289.692 176.064L289.381 147.021Z" fill="#FF9946" stroke="#12192D" stroke-width="0.3" stroke-linejoin="round"/>
<path d="M267.674 39.0137L268.802 143.39L289.402 147.021L289.713 176.064L213.446 162.642L213.13 133.599L237.704 137.931L236.956 68.8944L215.28 65.0737L215.038 42.7607C228.012 42.1125 236.286 39.7937 244.887 35.0033L267.674 39.0137Z" fill="#FFE48F" stroke="#12192D" stroke-width="0.3" stroke-linejoin="round"/>
<path d="M267.653 39.0085L291.363 29.2854L292.496 133.662L268.786 143.391L267.653 39.0085Z" fill="#FFC13C" stroke="#12192D" stroke-width="0.3" stroke-linejoin="round"/>
<path d="M244.887 34.998L268.597 25.2697L291.363 29.2854L267.653 39.0084L244.887 34.998Z" fill="#FFC13C" stroke="#12192D" stroke-width="0.3" stroke-linejoin="round"/>
<path opacity="0.9" d="M270.362 35.2983C276.238 35.2983 281.002 33.0026 281.002 30.1706C281.002 27.3387 276.238 25.043 270.362 25.043C264.486 25.043 259.722 27.3387 259.722 30.1706C259.722 33.0026 264.486 35.2983 270.362 35.2983Z" fill="#11192F"/>
<path d="M267.274 34.2655C275.889 34.2655 282.873 27.2816 282.873 18.6665C282.873 10.0513 275.889 3.06738 267.274 3.06738C258.658 3.06738 251.675 10.0513 251.675 18.6665C251.675 27.2816 258.658 34.2655 267.274 34.2655Z" fill="#6EFFD9" stroke="#12192D" stroke-width="0.3" stroke-miterlimit="10"/>
<path d="M261.656 23.2038C258.23 23.2086 254.855 22.3783 251.822 20.7849C252.128 23.0644 252.935 25.2479 254.184 27.1792C255.433 29.1105 257.093 30.7416 259.046 31.9559C261 33.1702 263.197 33.9376 265.482 34.203C267.766 34.4685 270.081 34.2255 272.261 33.4914C274.441 32.7574 276.431 31.5504 278.089 29.957C279.748 28.3636 281.034 26.4231 281.854 24.2746C282.675 22.1261 283.011 19.8227 282.837 17.5293C282.663 15.236 281.984 13.0094 280.849 11.0092C279.137 14.6536 276.423 17.7355 273.024 19.8949C269.625 22.0543 265.682 23.202 261.656 23.2038Z" fill="#009D73" stroke="#12192D" stroke-width="0.3" stroke-miterlimit="10" stroke-linecap="round"/>
<path d="M309.702 176.533V202.245" stroke="#11192F" stroke-width="0.3" stroke-linecap="round" stroke-linejoin="round"/>
<path d="M297.054 207.763V233.712" stroke="#11192F" stroke-width="0.3" stroke-linecap="round" stroke-linejoin="round"/>
<path d="M259.427 249.153V275.097" stroke="#11192F" stroke-width="0.3" stroke-linecap="round" stroke-linejoin="round"/>
<path d="M301.392 232.136V258.086" stroke="#11192F" stroke-width="0.3" stroke-linecap="round" stroke-linejoin="round"/>
<path d="M337.021 191.157V217.101" stroke="#11192F" stroke-width="0.3" stroke-linecap="round" stroke-linejoin="round"/>
<path opacity="0.9" d="M328.416 313.198C344.095 310.507 356.402 305.972 355.904 303.069C355.405 300.166 342.291 299.994 326.611 302.686C310.931 305.377 298.625 309.912 299.123 312.815C299.621 315.718 312.736 315.89 328.416 313.198Z" fill="#11192F"/>
<path d="M307.141 314.595C324.371 314.595 338.339 300.628 338.339 283.397C338.339 266.167 324.371 252.199 307.141 252.199C289.911 252.199 275.943 266.167 275.943 283.397C275.943 300.628 289.911 314.595 307.141 314.595Z" fill="#FFE48F" stroke="#12192D" stroke-width="0.3" stroke-linejoin="round"/>
<path d="M295.911 292.467C289.058 292.474 282.306 290.814 276.238 287.629C276.861 292.179 278.48 296.535 280.981 300.387C283.482 304.239 286.802 307.491 290.705 309.911C294.608 312.331 298.997 313.859 303.559 314.387C308.121 314.914 312.743 314.428 317.095 312.963C321.448 311.498 325.423 309.089 328.737 305.91C332.051 302.731 334.622 298.86 336.267 294.572C337.911 290.284 338.589 285.686 338.251 281.106C337.914 276.526 336.569 272.078 334.313 268.078C330.888 275.369 325.457 281.535 318.657 285.854C311.856 290.173 303.967 292.467 295.911 292.467Z" fill="#FFC13C" stroke="#12192D" stroke-width="0.3" stroke-linejoin="round"/>
<path d="M354.101 4.20037C371.777 8.94333 380.767 27.1036 374.127 44.7053C367.487 62.3069 347.777 72.773 330.081 68.0406C312.384 63.3082 303.415 45.1321 310.055 27.5305C316.695 9.92881 336.405 -0.537322 354.101 4.20037Z" fill="#F5BC41" stroke="#12192D" stroke-width="0.3" stroke-linejoin="round"/>
<path d="M337.633 20.3529C337.927 20.5179 338.182 20.7444 338.381 21.0169L339.541 22.6664C339.326 22.38 339.05 22.1443 338.734 21.976L338.692 21.9391C338.386 21.7283 336.489 20.7007 336.379 20.6374L335.219 18.9827C336.057 19.4253 336.821 19.8522 337.633 20.3529Z" fill="#F09445" stroke="#12192D" stroke-width="0.3" stroke-linejoin="round"/>
<path d="M351.019 15.5203L352.178 17.175L348.594 22.5188L347.435 20.864L351.019 15.5203Z" fill="#F09445" stroke="#12192D" stroke-width="0.3" stroke-linejoin="round"/>
<path d="M344.895 24.8059L346.054 26.4607L341.606 33.0797L340.447 31.4302L344.895 24.8059Z" fill="#F09445" stroke="#12192D" stroke-width="0.3" stroke-linejoin="round"/>
<path d="M356.842 18.835L358.002 20.4897L354.344 25.9389L353.185 24.2841L356.842 18.835Z" fill="#F09445" stroke="#12192D" stroke-width="0.3" stroke-linejoin="round"/>
<path d="M367.045 16.1367L368.204 17.7914C364.523 12.5947 359.12 8.8713 352.953 7.28315C336.99 2.96179 319.141 12.4477 313.159 28.3366C309.639 37.7172 311.02 47.2769 316.021 54.4176L314.867 52.7629C309.86 45.6484 308.48 36.0624 312.005 26.6766C317.981 10.7824 335.831 1.3281 351.793 5.59677C357.965 7.19303 363.369 10.9281 367.045 16.1367Z" fill="#F09445" stroke="#12192D" stroke-width="0.3" stroke-linejoin="round"/>
<path d="M327.335 44.1467L328.495 45.8014C327.741 45.364 326.982 44.9108 326.202 44.4629L321.986 42.065L320.827 40.4103L325.043 42.8081C325.823 43.2561 326.582 43.7093 327.335 44.1467Z" fill="#F09445" stroke="#12192D" stroke-width="0.3" stroke-linejoin="round"/>
<path d="M350.218 28.6266L351.377 30.2814C350.075 28.4264 347.203 27.1194 346.054 26.4607L344.895 24.8059C346.049 25.4647 348.916 26.7716 350.218 28.6266Z" fill="#F09445" stroke="#12192D" stroke-width="0.3" stroke-linejoin="round"/>
<path d="M338.208 34.7714L339.367 36.4261L334.461 43.725L333.301 42.0755L338.208 34.7714Z" fill="#F09445" stroke="#12192D" stroke-width="0.3" stroke-linejoin="round"/>
<path d="M326.872 51.493L328.031 53.1478L324.801 51.3086L323.641 49.6538L326.872 51.493Z" fill="#F09445" stroke="#12192D" stroke-width="0.3" stroke-linejoin="round"/>
<path d="M330.534 46.0438L331.694 47.6986L328.031 53.1477L326.872 51.493L330.534 46.0438Z" fill="#F09445" stroke="#12192D" stroke-width="0.3" stroke-linejoin="round"/>
<path d="M333.101 47.5405L334.26 49.1953C333.422 48.721 332.569 48.2256 331.694 47.6986L330.534 46.0438C331.409 46.5708 332.263 47.0662 333.101 47.5405Z" fill="#F09445" stroke="#12192D" stroke-width="0.3" stroke-linejoin="round"/>
<path d="M344.737 39.4616L345.896 41.1164C344.315 38.8872 340.779 37.2377 339.367 36.4261L338.208 34.7714C339.62 35.5829 343.177 37.2166 344.737 39.4616Z" fill="#F09445" stroke="#12192D" stroke-width="0.3" stroke-linejoin="round"/>
<path d="M356.947 27.8098L358.106 29.4646C359.456 31.3881 359.793 33.5383 358.423 36.0362C356.768 39.0664 354.439 40.1257 351.904 40.0414L350.744 38.3866C353.279 38.4709 355.609 37.4117 357.263 34.3867C358.634 31.8888 358.317 29.7333 356.947 27.8098Z" fill="#F09445" stroke="#12192D" stroke-width="0.3" stroke-linejoin="round"/>
<path d="M332.69 54.8077L333.849 56.4625L330.613 54.6233L329.454 52.9685L332.69 54.8077Z" fill="#F09445" stroke="#12192D" stroke-width="0.3" stroke-linejoin="round"/>
<path d="M336.389 49.3113L337.549 50.966L333.849 56.4626L332.69 54.8078L336.389 49.3113Z" fill="#F09445" stroke="#12192D" stroke-width="0.3" stroke-linejoin="round"/>
<path d="M351.867 39.6882L353.027 41.343C354.608 43.5827 354.608 46.2124 351.946 49.543C349.053 53.1424 345.765 53.759 342.023 52.705C340.478 52.2612 338.98 51.67 337.549 50.9396L336.389 49.3375C337.821 50.068 339.319 50.6592 340.864 51.103C344.605 52.1042 347.894 51.514 350.787 47.941C353.459 44.5577 353.438 41.9596 351.867 39.6882Z" fill="#F09445" stroke="#12192D" stroke-width="0.3" stroke-linejoin="round"/>
<path d="M336.389 49.3374C337.821 50.0679 339.319 50.6591 340.864 51.1029C344.605 52.1042 347.894 51.5139 350.787 47.9409C353.459 44.6103 353.422 41.9858 351.841 39.7408" stroke="#12192D" stroke-width="0.3" stroke-linejoin="round"/>
<path d="M357.264 34.3867C355.609 37.4169 353.279 38.4709 350.745 38.3866C353.322 40.9056 353.991 43.8884 350.787 47.8725C347.894 51.4719 344.605 52.0885 340.863 51.0345C339.321 50.6127 337.823 50.0445 336.389 49.3375L332.7 54.8394L329.465 52.9949L333.111 47.5668C332.273 47.0925 331.42 46.5972 330.545 46.0702L326.872 51.4982L323.641 49.659L327.33 44.1466C326.577 43.7092 325.818 43.256 325.038 42.8081L320.822 40.4102L324.121 36.8161C324.231 36.8794 326.318 38.1125 326.471 38.1547C326.601 38.2261 326.739 38.2826 326.882 38.3233C327.17 38.386 327.469 38.3647 327.745 38.2619C328.02 38.1591 328.261 37.9792 328.437 37.7436L338.45 22.8138C338.565 22.6012 338.636 22.3674 338.658 22.1266C338.68 21.8858 338.653 21.643 338.579 21.4129C338.505 21.1828 338.384 20.9702 338.225 20.7879C338.066 20.6057 337.872 20.4577 337.654 20.3528C336.853 19.8732 336.041 19.42 335.219 18.972L337.601 15.4306L342.065 17.976C342.718 18.3765 343.419 18.7507 344.126 19.1354L347.778 13.6863L351.008 15.5255L347.435 20.8798C348.31 21.3541 349.19 21.8284 350.044 22.3132L353.606 17.0064L356.842 18.8508L353.185 24.3C357.111 27.0562 359.509 30.255 357.264 34.3972V34.3867ZM344.826 43.5933C347.709 39.2983 340.4 36.0256 338.207 34.7714L333.301 42.0755C334.497 42.7554 336.99 44.3627 339.456 45.0267C341.517 45.5801 343.567 45.4694 344.826 43.5933ZM350.239 32.4315C352.874 28.5212 346.718 25.8493 344.895 24.8059L340.447 31.4197C341.417 31.9467 343.398 33.2694 345.427 33.8122C347.251 34.3076 349.053 34.1917 350.239 32.4315Z" fill="#FAE08C" stroke="#12192D" stroke-width="0.3" stroke-linejoin="round"/>
<path d="M352.952 2.51925C370.628 7.26221 379.618 25.4278 372.978 43.0294C366.338 60.6311 346.629 71.0972 328.932 66.3595C311.235 61.6218 302.266 43.451 308.906 25.8546C315.546 8.25824 335.256 -2.21317 352.952 2.51925ZM330.118 63.2766C346.08 67.5558 363.924 58.0962 369.901 42.1968C375.877 26.2973 367.761 9.88138 351.793 5.59691C335.825 1.31243 317.981 10.7773 312.005 26.6767C306.029 42.5762 314.15 58.9974 330.118 63.2766Z" fill="#FAE08C" stroke="#12192D" stroke-width="0.3" stroke-linejoin="round"/>
<path d="M372.515 18.055L372.699 18.3133C378.238 26.2182 379.772 36.8003 375.861 47.1874C369.242 64.789 349.512 75.2552 331.815 70.5227C324.995 68.7586 319.021 64.6362 314.951 58.8867L313.212 56.4045C313.428 56.7102 313.649 57.0158 313.876 57.311C313.66 57 313.449 56.6891 313.249 56.3782L312.09 54.7234C316.156 60.4759 322.132 64.5991 328.953 66.3595C346.624 71.1024 366.37 60.6258 373 43.0294C376.9 32.6423 375.371 22.0602 369.838 14.1553L370.997 15.81C371.535 16.5373 372.02 17.2909 372.515 18.055Z" fill="#F09445" stroke="#12192D" stroke-width="0.3" stroke-linejoin="round"/>
<path opacity="0.9" d="M201.309 255.862C217.605 255.862 230.816 242.651 230.816 226.355C230.816 210.059 217.605 196.849 201.309 196.849C185.013 196.849 171.803 210.059 171.803 226.355C171.803 242.651 185.013 255.862 201.309 255.862Z" fill="#11192F"/>
<path d="M203.55 197.471C189.368 193.671 173.142 202.498 167.377 217.159C161.611 231.82 168.467 246.835 182.659 250.634C196.851 254.434 213.067 245.601 218.827 230.946C224.587 216.29 217.731 201.27 203.55 197.471Z" fill="#B9DCFB" stroke="#12192D" stroke-width="0.3" stroke-linejoin="round"/>
<path d="M172.23 240.637L173.642 242.176C168.109 236.157 166.354 226.977 169.906 217.934C175.113 204.696 189.774 196.712 202.58 200.148C206.437 201.148 209.926 203.233 212.635 206.156L211.222 204.622C208.514 201.698 205.025 199.611 201.167 198.609C188.356 195.178 173.695 203.157 168.494 216.4C164.942 225.444 166.697 234.624 172.23 240.637Z" fill="#789BCD" stroke="#12192D" stroke-width="0.3" stroke-linejoin="round"/>
<path d="M202.132 225.792L203.544 227.325L200.113 206.451L198.701 204.917L202.132 225.792Z" fill="#789BCD" stroke="#12192D" stroke-width="0.3" stroke-linejoin="round"/>
<path d="M198.701 204.917L181.073 220.147L189.073 229.396L202.132 225.792L198.701 204.917Z" fill="#D7EEFF" stroke="#12192D" stroke-width="0.3" stroke-linejoin="round"/>
<path d="M189.073 229.396L190.485 230.93L203.544 227.325L202.132 225.792L189.073 229.396Z" fill="#789BCD" stroke="#12192D" stroke-width="0.3" stroke-linejoin="round"/>
<path d="M184.768 240.358L186.18 241.891L202.733 229.386L201.321 227.852L184.768 240.358Z" fill="#789BCD" stroke="#12192D" stroke-width="0.3" stroke-linejoin="round"/>
<path d="M202.179 196.058C216.366 199.858 223.212 214.872 217.462 229.533C211.713 244.194 195.476 253.021 181.284 249.222C167.092 245.422 160.246 230.408 166.001 215.747C171.756 201.086 187.993 192.259 202.174 196.058H202.179ZM214.975 228.869C220.182 215.626 213.995 202.061 201.183 198.625C188.372 195.189 173.711 203.173 168.51 216.416C163.308 229.66 169.495 243.219 182.306 246.655C195.102 250.086 209.763 242.107 214.975 228.869Z" fill="#D7EEFF" stroke="#12192D" stroke-width="0.3" stroke-linejoin="round"/>
<path d="M180.261 222.208L184.767 240.358L201.32 227.852L188.267 231.451L180.261 222.208Z" fill="#D7EEFF" stroke="#12192D" stroke-width="0.3" stroke-linejoin="round"/>
<path d="M170.143 242.566C171.45 243.983 172.747 245.385 174.096 246.782C177.033 249.763 180.723 251.893 184.773 252.948C198.954 256.752 215.18 247.92 220.94 233.264C224.803 223.446 223.001 213.465 217.13 206.804C215.932 205.378 214.659 204.019 213.315 202.73C219.444 209.386 221.383 219.552 217.452 229.549C211.692 244.205 195.465 253.037 181.284 249.237C177.01 248.122 173.144 245.807 170.143 242.566Z" fill="#789BCD" stroke="#12192D" stroke-width="0.3" stroke-linejoin="round"/>
<path d="M168.441 43.1769C159.287 44.0939 153.348 52.3888 155.208 61.6639C157.068 70.939 166.027 77.7373 175.186 76.815C184.346 75.8928 190.279 67.6032 188.419 58.328C186.559 49.0529 177.6 42.2547 168.441 43.1769Z" fill="#5DCA9D" stroke="#12192D" stroke-width="0.3" stroke-miterlimit="10"/>
<path d="M161.042 48.0412L160.331 48.7685C162.581 46.4842 165.569 45.0724 168.762 44.7844C177.036 43.957 185.131 50.0965 186.812 58.4863C187.311 60.7333 187.25 63.0687 186.633 65.2863C186.016 67.504 184.863 69.5358 183.276 71.2027L183.987 70.4754C185.57 68.8079 186.719 66.7773 187.334 64.562C187.949 62.3466 188.01 60.0142 187.513 57.7696C185.832 49.3903 177.737 43.2508 169.463 44.0677C166.275 44.3543 163.291 45.7623 161.042 48.0412Z" fill="#5DCA9D" stroke="#12192D" stroke-width="0.3" stroke-miterlimit="10"/>
<path d="M169.126 42.434C178.285 41.5118 187.244 48.31 189.104 57.5851C190.965 66.8602 185.025 75.1552 175.866 76.0721C166.707 76.9891 157.748 70.1961 155.893 60.921C154.038 51.6459 159.977 43.351 169.126 42.434ZM187.513 57.7696C185.832 49.3903 177.737 43.2508 169.463 44.0677C161.189 44.8845 155.83 52.3784 157.532 60.7576C159.234 69.1369 167.308 75.2764 175.582 74.4595C183.824 73.6163 189.189 66.1277 187.513 57.7696Z" fill="#74FAD9" stroke="#12192D" stroke-width="0.3" stroke-linecap="round" stroke-linejoin="round"/>
<path d="M158.165 48.5629L158.054 48.6735C154.665 52.1517 153.048 57.2794 154.144 62.7549C156.004 72.03 164.963 78.8282 174.122 77.906C177.653 77.588 180.957 76.0268 183.445 73.5003L184.499 72.4094L184.098 72.8047C184.23 72.6677 184.362 72.5306 184.483 72.3936L185.194 71.6664C182.705 74.1939 179.4 75.7553 175.866 76.072C166.713 76.9943 157.748 70.1961 155.893 60.9209C154.792 55.4507 156.42 50.3178 159.804 46.8396L159.113 47.5669C158.776 47.8883 158.465 48.2203 158.165 48.5629Z" fill="#479E74" stroke="#12192D" stroke-width="0.3" stroke-miterlimit="10"/>
<path d="M171.223 54.3915L172.146 53.8065L177.395 51.7776L176.472 52.3678L171.223 54.3915Z" fill="#5DCA9D" stroke="#12192D" stroke-width="0.3" stroke-miterlimit="10"/>
<path d="M180.757 56.6786C180.759 56.7084 180.759 56.7384 180.757 56.7682C180.757 56.7945 180.757 56.8156 180.757 56.8367V56.8841C180.74 56.9273 180.72 56.9695 180.699 57.0106L180.636 57.1266L180.583 57.2003L180.536 57.2741L180.377 57.4691L180.235 57.6219L180.193 57.6641L180.119 57.7379L180.077 57.7748L179.977 57.8696L179.877 57.9645L179.761 58.0593L179.698 58.1173H179.661L179.387 58.3334L179.055 58.5758H179.023L178.891 58.6654L178.802 58.7233L178.522 58.9131L177.6 59.498L177.879 59.3136L177.969 59.2556L178.132 59.1397L178.464 58.9025L178.738 58.6865L178.839 58.5969L178.955 58.502L179.055 58.4124L179.155 58.3176L179.271 58.2069L179.313 58.1595L179.46 58.0014L179.613 57.8116L179.671 57.7273L179.724 57.6483L179.798 57.5165C179.822 57.4711 179.841 57.4234 179.856 57.3742V57.3321C179.858 57.3022 179.858 57.2723 179.856 57.2425C179.858 57.2127 179.858 57.1827 179.856 57.1529C179.856 57.1529 179.856 57.116 179.856 57.0949C179.856 57.0739 179.856 57.037 179.856 57.0106C179.856 56.9843 179.856 56.9737 179.856 56.9526C179.847 56.9122 179.833 56.8732 179.814 56.8367C179.803 56.806 179.787 56.7774 179.766 56.7524L179.703 56.6786C179.681 56.6531 179.656 56.6301 179.629 56.6101L179.55 56.5574H179.513H179.466C179.41 56.5287 179.351 56.504 179.292 56.4836H179.26L179.049 56.4256L178.802 56.3835H178.754L178.486 56.3571H178.433H178.132H178.101H177.785H177.737H177.384H177.316L176.941 56.394H176.883L176.478 56.4467L176.046 56.5152H175.972L175.54 56.5996H175.455L175.002 56.6997H174.955L174.491 56.8104H174.433L173.953 56.9421H173.858C173.693 56.9843 173.53 57.0317 173.368 57.0844L173.284 57.1107C173.11 57.1582 172.936 57.2161 172.757 57.2741L173.679 56.6839L174.206 56.5205H174.291L174.781 56.3782H174.876L175.355 56.2517H175.413L175.877 56.1411H175.924L176.378 56.0357H176.462L176.894 55.9514H176.968L177.4 55.8776L177.8 55.8196H177.864L178.238 55.7827H178.306H178.659H179.055H179.355H179.408H179.677H179.666C179.75 55.7827 179.835 55.8091 179.914 55.8301L180.124 55.8881H180.156C180.216 55.9103 180.274 55.9367 180.33 55.9672H180.362H180.399L180.456 56.0093L180.488 56.0357H180.52H180.546V56.0778V56.12V56.1832C180.549 56.213 180.549 56.243 180.546 56.2728C180.546 56.2728 180.757 56.6575 180.757 56.6786Z" fill="#5DCA9D" stroke="#12192D" stroke-width="0.3" stroke-miterlimit="10"/>
<path d="M178.037 60.4572C177.056 61.0716 176.033 61.6174 174.976 62.0909L175.898 61.5059C176.954 61.0297 177.977 60.4821 178.96 59.8669L178.037 60.4572Z" fill="#5DCA9D" stroke="#12192D" stroke-width="0.3" stroke-miterlimit="10"/>
<path d="M167.266 59.7194C167.582 59.5191 167.919 59.3188 168.283 59.1133L169.042 58.7128L169.442 58.5125C169.711 58.3808 169.969 58.249 170.28 58.1226L171.824 61.2845L175.165 59.9934L174.243 60.5836L170.902 61.8695L169.358 58.7075C168.494 59.0975 167.703 59.5033 167.008 59.9038L166.344 60.3043L167.266 59.7194Z" fill="#5DCA9D" stroke="#12192D" stroke-width="0.3" stroke-miterlimit="10"/>
<path d="M161.501 52.8948L163.556 57.116L168.805 55.0924L170.164 57.8802L169.242 58.4704L167.883 55.6773L162.634 57.701L160.578 53.485L161.501 52.8948Z" fill="#5DCA9D" stroke="#12192D" stroke-width="0.3" stroke-miterlimit="10"/>
<path d="M163.182 63.1554V63.0553V63.0026C163.182 63.0026 163.182 62.9551 163.208 62.934C163.234 62.913 163.208 62.8972 163.208 62.8813C163.222 62.8582 163.232 62.8334 163.24 62.8076L163.271 62.7391V62.7074L163.324 62.6126C163.324 62.6126 163.324 62.5599 163.371 62.5283L163.424 62.4492L163.508 62.3227L163.64 62.1594L163.666 62.1225L163.74 62.0382C163.74 62.0118 163.793 61.9855 163.814 61.9538L163.872 61.8906L164.083 61.6798L164.13 61.6324L164.341 61.4374L164.441 61.3531L164.615 61.2002H164.641L164.9 60.9947L164.958 60.9473C165.058 60.8735 165.153 60.7997 165.258 60.7312L165.311 60.689L165.448 60.5942L165.574 60.5046L165.674 60.4361L166.022 60.2095L166.944 59.6245L166.597 59.8511L166.496 59.9196L166.233 60.0988L166.175 60.141L165.88 60.3623L165.822 60.4097C165.732 60.473 165.648 60.5415 165.564 60.61H165.537L165.353 60.7681L165.253 60.8577L165.042 61.0527L164.995 61.0948L164.784 61.3109L164.726 61.3741L164.578 61.5428L164.552 61.5797L164.404 61.7694C164.373 61.8076 164.345 61.8482 164.32 61.8906L164.251 61.996C164.251 61.996 164.225 62.0487 164.209 62.0803L164.141 62.2015L164.109 62.2753L164.062 62.3965C164.064 62.421 164.064 62.4458 164.062 62.4703C164.046 62.5183 164.036 62.5677 164.03 62.6178C164.025 62.6757 164.025 62.7339 164.03 62.7918V62.8181C164.027 62.8725 164.027 62.9271 164.03 62.9815C164.042 63.0382 164.062 63.0931 164.088 63.1448C164.104 63.1828 164.125 63.2183 164.151 63.2502L164.23 63.3504L164.32 63.44L164.41 63.5085L164.531 63.5823H164.562L164.668 63.6297H164.715L164.815 63.6666H164.873L164.979 63.6982H165.042H165.163H165.221L165.406 63.7298H165.611H165.68H165.822H165.906H166.048H166.623H166.876H166.939H167.145H167.24H167.419H167.529H167.709H167.819H168.014H168.114L168.409 63.6877L168.715 63.6349H168.821L169.037 63.5981H169.158L169.363 63.5559H169.485L169.701 63.5137H169.822L170.075 63.4558H170.154L170.496 63.3767H170.581L170.844 63.3082L170.971 63.2713L171.203 63.2134L171.334 63.1712L171.561 63.108L171.698 63.0658L171.946 62.992L172.062 62.9604L172.425 62.8445L176.757 71.7401L180.098 70.449L179.176 71.0392L175.977 72.2777L171.64 63.382L171.276 63.4979L171.16 63.5348L170.913 63.6086L170.781 63.6455L170.549 63.714L170.417 63.7509L170.185 63.8141L170.059 63.8457L169.801 63.9143H169.711L169.374 63.9986H169.29L169.037 64.0565H168.915L168.705 64.104H168.573L168.373 64.1409H168.251L168.035 64.1778H167.93L167.624 64.2252L167.329 64.2673H167.234L167.034 64.2937H166.923H166.744H166.633H166.454H166.359H166.154H165.774C165.711 64.2937 165.648 64.2937 165.59 64.2937H165.063H164.921H164.852H164.652L164.468 64.2568H164.41L164.288 64.2252H164.225L164.12 64.1936H164.062L163.962 64.1567H163.914L163.809 64.104H163.777L163.666 64.0355L163.603 63.9933C163.603 63.9933 163.603 63.9933 163.577 63.9933C163.565 63.9783 163.551 63.9658 163.535 63.9564L163.498 63.9143L163.466 63.8774L163.44 63.8457V63.8089V63.772V63.7404C163.437 63.7229 163.437 63.7051 163.44 63.6877C163.437 63.6684 163.437 63.6489 163.44 63.6297C163.437 63.6158 163.437 63.6014 163.44 63.5875C163.437 63.5366 163.437 63.4856 163.44 63.4347V63.3609C163.437 63.3188 163.437 63.2766 163.44 63.2344L163.182 63.1554Z" fill="#5DCA9D" stroke="#12192D" stroke-width="0.3" stroke-miterlimit="10"/>
<path d="M168.804 55.0923L163.535 57.116L161.479 52.9L175.318 47.5615L177.373 51.7775L172.103 53.8012L173.463 56.5942C177.637 55.2504 181.194 55.0818 181.784 56.2991C182.375 57.5165 179.808 59.7088 175.856 61.5006L180.23 70.4173L176.889 71.7085L172.557 62.8128C168.341 64.1724 164.768 64.3463 164.172 63.129C163.577 61.9116 166.18 59.693 170.164 57.9012L168.804 55.0923ZM173.785 61.3214C178.127 59.6508 181.226 57.4216 180.704 56.3518C180.256 55.4296 177.242 55.672 173.621 56.8366L175.165 59.9986L171.824 61.2898L170.28 58.1278C166.812 59.7088 164.525 61.49 164.979 62.4228C165.506 63.4768 169.442 63.0025 173.785 61.3267" fill="#74FAD9"/>
<path d="M173.785 61.3214C178.127 59.6508 181.226 57.4216 180.704 56.3518C180.256 55.4296 177.242 55.672 173.621 56.8367L175.165 59.9986L171.824 61.2898L170.28 58.1278C166.812 59.7088 164.525 61.49 164.979 62.4228C165.506 63.4768 169.442 63.0025 173.785 61.3267M168.804 55.0923L163.535 57.116L161.479 52.9L175.318 47.5615L177.373 51.7775L172.103 53.8012L173.463 56.5942C177.637 55.2504 181.194 55.0818 181.784 56.2991C182.375 57.5165 179.808 59.7088 175.856 61.5006L180.23 70.4173L176.889 71.7085L172.557 62.8128C168.341 64.1724 164.768 64.3463 164.172 63.129C163.577 61.9116 166.18 59.693 170.164 57.9012L168.804 55.0923Z" stroke="#12192D" stroke-width="0.3" stroke-miterlimit="10"/>
</g>
</g>
<defs>
<clipPath id="clip0_3_18">
<rect width="480" height="320" fill="white"/>
</clipPath>
</defs>
</svg>
